<?xml version="1.0" encoding="UTF-8"?>
<svg id="Layer_1" xmlns="http://www.w3.org/2000/svg" version="1.1" viewBox="0 0 1536 1024">
  <!-- Generator: Adobe Illustrator 29.8.2, SVG Export Plug-In . SVG Version: 2.1.1 Build 3)  -->
  <defs>
    <style>
      .st0 {
        fill: none;
        stroke: #000;
        stroke-miterlimit: 10;
      }
    </style>
  </defs>
  <path class="st0" d="M603,93c.3-.1,1.2-1.2,1.9-1.4l-.9-52.1,2-1.5,2,107h5s0,63.5,0,63.5c0,.2,1.5,1.1,1,1.5h-7s0-1,0-1c.8-.2,5,.2,5,0v-61.5c0-1.6-7.6-1.5-9-1.5v69h15c.2,0-.7-3.6,1-3v97c0,.5,9-.5,9,0v132c0,.5,10,0,10,1v122c0,.4,8-.4,8,0v106c0,.4,7.4-1.2,7.9,1.6v72.4c.1,0,6.1.5,6.1.5-2.2,2.4-14.4.5-15,.9-1.6,1.2-.8,4.7-1,6.6h17c.4,0-.3-6.9,0-8h1s0,42,0,42h25.5c2.9,0-2,9,4.5,8v-80c10.6-2.4,21.3,0,32,0l-6,1v78h7v-79h1v38c0,.5,9-.5,9,0v40.5c0,.3,2.1,1.6,2.5,2.5,1,2.3-.8,5.6,2.5,5v-175c7.7.3,5-.8,5-5.4,0-2.1-.2-12.8.2-13.4s5.9-.7,6.4-4.1l1.5,3c1.8-3.7-.2-7.2,0-10.3,1.1-11.3,5.5-22.9,3.9-34.7l5,35.5c.2,1.4-.2,6.3,0,6.5,1.1,1,10.6-2.3,8,6-1.8.2,0-1.8-2.4-2.1s-20.4,0-21.6,1.1c-3.5,3.3,3.3,1,3.5,1h19c.2,0,1.8,1.7,1.5,2l-9-1v15h10v-17l1.6,9.7-.6,8.3h7s0,102,0,102c0,.3,3.5-.4,5.1.5s-.2,2.5,0,2.5c1.2.6,10.8.8,13,1v50h10v-261.5l10.5-27.5c1.4,3.8-10.7,28.1-9.5,29l26-1v-59l2,12.5c0,37.3-.1,75,0,112,0,64.5,0,129,0,193.5h24c-.7-1.5-1-2.7-1.1-4.4-1.6-64.9,4.6-135.7-.9-199.6.2.4,1.3,2.3,2,2-1.1-8.1-1.2-16.3-1-24.5s.7-18.8,1-28,1.4-6.1,1-6.5-8.6-1.4-9-1c-.7,19.6,4.3,38.6,6,58-3.4-6.8-7.9-44.7-8-53.5s1.1-6,1.1-8.9c0-8.8,0-17.7,0-26.5h-5c-1,16.7,1.4,35,0,51.5s-5.1,21.4-6.3,31.7l-2.7,7.8c2.7-18.7,8.8-36.8,8-56l-8-1c1.1-.3,8,.4,8,0v-33l-2,1-7-26.5c1-1.6,1.3.8,1.5,1.5,2.1,6.7,3.1,13.9,5.4,20.6s-.9,2.9,2.1,2.3v-17h1v16h6s1,31,1,31c.8.8,9-1.9,9,2.5l-1,290c2.5,0,4.4,2.7,8,2.5v-239c2.4-.3,8.2.9,9.6-1-.7-6.1-.4-14.2,3.9-19,.4,3-2,5.4-2.4,8.6s.2,7.7,0,11.4c4-1.9,8.7-.7,13-1v-20h2v18.5c0,.3-1.2.7-1,1.5l12,1c.5-.5-1-12.2-1.5-14s-7.7-17.4-9.1-18.9-.9-1.4-2-1l-4.5,5c-.6-2,4-5.9,4-6.5v-19.5h2v19.5c0,1.5,10.7,18.4,11.9,27.1s-.1,8,.2,8.3c.6.6,8.8.6,9,1.6v234.9c-.2,3.9-11.1.8-13-1.5l12,2v-235l-16-1v229.5c0,.4,2.5,2.2,3,3-1,1.7-2.4-.8-3.8-1.3s-5.2.4-5.2-2.7v-228.5h2v230h3v-231l-28,1v238c3.3,0,6.6.3,9.8-.7s4.7-4.9,7.2-3.8c-4.3,6.6-13.3,6.3-20.5,5.5-4.7-.5-6.7-2.7-13-2s-10,4.3-14.1,4.9-13.4.5-15.9,0-6.9-3.5-5.5-5,4.9,3.7,6.5,4c11.8,2.3,16.6-2.9,26.2-4.7s5.5-.2,8.3-.2v-29l-65,2v32h3v-31l2,.5c-2.3,9.7,0,20.5-1,30.5l6,1h-12c3.2-9.7-.9-24,.9-33.4s2.9.1,3.1-1.1v-48.5c0,0-7.1,0-7.1,0v81c0,0,5.5-.3,1.5,1-6.5-1.5-12.8-2.5-19.5-2l8.5-1,8.5,1v-80h-26v73l-8-1,3-178v177h3v-72c1.3.5,3-1,3.5-1h19.5v-2s-6,0-6,0c-.5-.4,1-1.3,1-1.5v-100.5c-12.4-.4-24.7-2-37,0v177c-3.2-2.6-7.9-1.5-12-2l5-1v-5h-34v6h25c-.2,1.8-4.6,1.5-5.9,1.6-2.9,0-17.6-1.1-18.6.4s.1,3.9-1,4.1c-2.5.4-5.4-1.1-8-1.1s-6.2,1.7-9.5,1.1l7.5-2h9.5s0-3,0-3h-80.5c-3.5,0-3.1,9.9-2.6,12.4s3.4-.5,3.1,1.5l-2.5,2,898,1,.5-2-6-1.5,3,.5v-32h-10v27c3.6-.7,7.4-2.2,8,3-4.9-4.4-11,1.2-17-2-.5-1.6,2-.9,2-1v-62h-11v66l6.5-2c1.4.9-1.4,1.8-1.9,2.1-7.4,2.9-9.2-.6-16.1-1s-7.4,1-12,2c-3,.6-.5-1.3-.5-1.5v-45.5h-7v47c2.1.5,5.7-2.9,5,1h-10s4-1,4-1c.2-22.5.1-45.1-1-67.4-.2-4.2.7-10.4,0-14s-3.4.5-3.1-1.5c1.2.2,3.8-.7,4,.6,1.8,11,.6,23.2,1,34.4h7s0-15.5,0-15.5c22-5.2,10.9,9.6,14.2,13.4s4.6.2,4.9,1.8v45.7c2.8,2.1,3.7,3.4,4-.8,1.2-16.3.3-36.4,0-53.1,0-3.6-.3-8.2-1.1-11.5h14c1.6,6,.9,12,0,18,.9.2,6-.3,6,0v17h11v33l2-.3,10.5,4.3H11s9.7-5.3,9.7-5.3c2.8-8.6,2.3-12.8-7.7-12.2,0-1.3,8.5,0,9-.5,1.3-1.3-1.4-33.2-.5-38.1.6-1.2,16.2-1.6,18.5,0v-23h22v36c0,.4,5.9-1.2,6.9,1.6,1.5,4.6-1,32.1.2,33.3s6.7.9,7.9,1v-115c11.9-1.5,25.1-1.7,37,0v94h10v-35h16.5c.3,0,2.7,1.6,3,2,1.9,3.1.2,26.3-.2,31.5.4,2.1,5,1.4,6.7,1.5v-16c7.7-1.8,16.2-1.2,24,0v22c0,.2,3.7-.7,3,1-2.9-.2-5.4,1.1-8,2,1.7-.7.9-16.4,1-19.5s-.8-3.7,1-3.5v21c.6,0,2-1.3,2-1.5v-20.5h-22v23c3.2-1.2,6.1,2.5,7.7,2.8s7.3-3.3,10.3-1.8c-1.8.6-7,2.9-9.6,3s-4-2.5-6-2.7-5,1.4-7.4.7c-.2-2.1,3.5-.5,4-1s-.2-6.5,0-8h-10s2-1,2-1v-33h-3v43l2.5-1c2.2,2.5-3.3,2.7-5.5,3-.1-1,2-2.1,2-2.5v-42.5h-13v51h3.5s-9,5-9,5c-3,.2-.8-1.2.2-1.8s4.3-1.9,4.3-2.1v-18h-10v24h-6s0-1,0-1h5v-117c-11.7-.4-23.2-1.2-35,0v113.4c1.9,1.7,15,3.4,15,0v-112.5h2v111.5c0,.2-1.3.9-.9,1.4s2.3-.6,1.9,1.1c-3.4-.9-9,3.2-11.4,3.1s-.4-1.7-1.3-2c-2.4-.7-14.8-2.9-17.3-3.1,1-.9,1.9-1,2.1-2.4,1.1-9.4-1-20.9,0-30.6h-6s0,34,0,34c.4.5,3.1-1,4-1-1.6,1.5-1.5,2.5-4.6,2.9s-6.9.9-7.4-.9c.9-.3,7,.3,7,0v-39h-10v40c1.8-.5,3.1.7,1.5,2l-9.5-2.5,7,.5c-1.5-8.4,0-16.9-.1-25.4s-.9-3.3-.9-5.2,1.5-9.2,1.1-9.5c-.6-.4-3.5.7-4-.5,0-.9,4-.6,4-2v-29.5h-9s0,69,0,69c-2.8-.7-1-1.9-1-2.5v-44.5h-17v49c1.6,0,6.3-2.6,7,0-3.6,1.7-9.6.8-12,4h569v-15l-77.4-.9c-2.9.8-.3,5.3-2.6,5.9-.2-1.1.3-4.7,0-5-1-1-24.7,0-28.5,0s-5.2-1.3-8-1.1-4,1.9-6.5,2.1c4.7-8.4,18.3,4.6,16-9h-20.5c-1,0-2.1,2.6-1.5-1h6s0-113,0-113l-22,1c0-.6,1.3-2,1.5-2h20.5v-2h-23v28c1.7-.3,9.6.4,10,0,.6-.6-1.2-5.1,1-5v100c0,.4,4.3-1,4,1-2.2,1.2-5.5-.1-7.2.2s-4.4,3.1-4.7,2.8c-2.9-2.8,7-3.6,7-4v-94h-13v99.5c0,1.1,1.8,1.8-2,3-7,2.2-10.3.2-16.6-.5s-7.2,1.7-11.4-1.1c0-.7,1-1.2,1-1.5v-142.5h-12v56c0,.4,8-.4,8,0v85c0,.2,3.9.6,2.5,2l-6.5-2c-.4-1.9,3-.7,3-1v-83h-42v87h7.5s10.5,2,10.5,2c-6.2,1.5-11.2-2-17.3-.8s-6.7,4.2-6.7,1.3v-90.5h1v90c2.8.4,4.1-.6,4.1-3.4v-85s-3.1-.6-3.1-.6c4.2-6.6,1.1-16.3,2-24h-20v107h-1v-107h-5v104.5c0,.3,1,.6,1,1,0,2.3-3.4.4-4.4.5-2.4.2-9.5,2.2-11,1.6s-2.2-2.9-4.9-2.7-3.2,3.7-3.7,4-2.1-1-3.3-.8c-2.8.3-5.6,1.6-8.6.9l4.5-3c1.3,5,8.3-2.8,11-2.9s2.6,3.4,5.5,2.9v-11s-11.4,0-11.4,0c-2.2.3,1.8,11.9-2.6,11-.9-4.1,1-8.8.9-12.4s-.9-2.7-.9-4.1c0-6.9.7-13.2,1-19.9s.7-4.7-1-4.5c-.1,15.4-5.1,30-8,45l-11,1,8-364-2,3.5-2,80.5-39-6c-.3-1.7,2.4-1.1,3.5-1,4.7.4,33.3,6.2,34.5,5-.2-1.3.4-5.5,0-6-.7-.8-19.1-3.1-21.4-3.1s-15.6,1.8-16.3,2.3-2.6,7.1-4.2,8.3c4.6,2,40.5,8,41.9,6.4s-.9-3.3,1-2.9l-2,84-66-8c5.5-31.2,15.1-63,29.1-91.4,1-1.9,3-7.2,4.9-7.6-.4,1.1-2.3,6.7-2,7,11.8-.3,23.5,1.9,35,4v-7s-33-4-33-4c4.1-11.7,11.8-23.9,17.5-35,1.5.8-.3,2.4-.7,3.3-4.3,10.1-10.3,20.7-15.8,30.2.8.9,5.5.7,5.9.4.8-.7,5.2-16.7,6.6-19.9s4.5-8,6.5-12c-1.3,5.6-3.9,8.7-5.8,13.7s-4.5,12.8-6.2,19.3l25,3,2-64c-5.7,3.9-6.8,12.5-9.8,18.7-1.5,3.2-3.7,6.3-5.2,9.3,1.6-6.9,4.5-11,7.6-17.9.7-1.7.9-3.2-1.1-1.1-14.5,16.8-26.2,35.6-38.5,54,.4-1.3,1-2.6,1-4-4.4.4-8.7-1.9-10.5,3l.5-3c-11.7.2-23.4-.7-35,1,6.8,5.8,17.5,5.6,24.5,12,1.7-1.4,2.7-3.7,2.5-6l-3-1c2.2-.7,8.8,1.8,8-2-3.9,0-7.1,1.3-11,0l1.5,3-13.5-4,35,1c-3.4,11.5-11.1,22.5-13.9,34.4-.2.7-.6.5-1.1.6.2-.7-.1-2.1.2-3.2.8-2.8,7.4-16.6,6.8-17.8-2.3,1.5-7.1-1.7-8.5,0s-7.3,14.8-8.8,18.4.3,4.6-1.9,5.3-2.7-1.3-5.2,1.4-5.1,10.7-5.5,12.5c-.7,2.7,3.8.2,4.5-.5.9-1.1,2.2-6.8,3.1-8.9s1-4,2.5-4c-.4,3.8-2.4,7.3-3.5,11s-1.3,3.3-1.6,4.4c-.5,1.6-3.2,11.2-2.8,11.6,3.4-2,6.7.4,9.5,0s3.1-8.9,5.5-11.6l-10-3.5c14.4,4.3,10.4-4.5,15-14-.8-.5-8.2.7-9-2,3.4-.5,6.7,1.5,10,1-23.2,78.2-34.2,155.1-16.7,236.2s4.4,21.5,6.7,25.1,7.4,3.8,9,2.7c-11.2-31.1-14.4-64.1-16-97l72.9,7.1c2.1,3.9.2,8.3.1,12.3-.2,24.7-1.6,49.3-.9,74.1-.2,1.5-4.1,4.2-6.1,4.5,4.4-4.6,6.2-4.7,5-12h-57c.3,1.8,2.1,9.9,3.5,10s2.8-2.3,5.9-2,5.8,4.1,8.3,4.8,14-.2,16.6-1,2.4-3.6,9.2-2.8l7.5,3c-3.9,1-8-2.5-11.4-2s-3.2,2.7-5.7,3.4-13.4,1.3-15,1.1c-4.4-.5-7.3-5.4-10.3-5.4s-6.6,4.1-10.8,3.7c-8-.8-6.7-10.7-10.2-15.8h-14.5l2,11h16c-1.4,2.7-6.2,1-8.3,1.1s-2.7.9-4.2.9-3.4-1.2-3.5-1c-.5.7,1,3.3-1,3l-3-14.6c-5.9-2-8.2,3.5-13.1,3.6.5-2,4.4-2.2,4.7-4.5s-4.6-15-5.4-18.3c-17.8-77.3-2.8-184.7,39.7-252.2-.8,4-10.9,21.2-10,22s2.9-.3,3.8-1.7c4.6-7.4,7.3-19.7,12.7-27.3,3.8-2.9-1.2,4-.5,5,2.3.4,5,1.7,7.4.9s4.3-7.4,4.6-8.4c.6-1.9-.3-1.3-1.5-1.5s-10-.2-10.4,0-3.2,7.6-4.3,9.3-1.7,1.4-1.8,1.6c.2-1,1.1-2.5.8-3.4-1.3-4.9-22.4-8.4-25.8-13.1,0-3.5,32.5-2.8,37.3-2.6l13.2-20.9c1.7,1-.5,2.2-.9,3.1-3,5.9-7.2,11.7-10.6,17.4h9c14.8-22.8,30-45.9,50-64.5l-1,83.3c2.8,2.9,7.7,2,8.1-2.3,1.2-.3,1.2.5,1,1.5-1.3,5.9-10,2.4-10,4,2.7,1.5,7.4-1.2,9,2.5l-8-1-2,42.4c-.1,78.9-3.5,157.4-5,236.1l8-.6c3.2-16.7,8.1-33.3,9.1-50.4,4.6-75.5-4.4-155.6,1-231-1.1-32.1-2.1-64.9-1.1-97.1,0-1.8.6-3.3,1.1-4.9-1.6-1.8-3.3,1.6-4.5,2.5-3.1.3-.5-1.1-.5-1.5v-67c0-.8,4.3-5.3,5,1l1,168.5,27-2c.2-1.5-1.9-1.2-3-1.5-6.6-1.7-16-4.1-22.5-2.5-1.3-1,1.3-1.9,2-2,2.8-.4,23.7,3,24.5,4,2.1,2.5-5.6,4,0,5.5-7.2,6.2-18.7,8.8-28,7.5v255h12v-19h13v-75h28v24c8.6-.6,17.4.9,26-1v-57c0-.2,2.3.6,3.1-.6,2.6-3.9,5.6-15.8,8.1-20.7.6-1.7,2.7-1.7,3.5-3.2s.2-14.9.3-17-.8-3.7,1-3.5v22c0,.2,1.9-.2,2.8,1.7s4.2,18,4.2,20.3c-3.6-5.1-3-15-5.5-20s-1.3-1.3-1.5-1c-.7,1.6,1,3.7,1,4.5v17c0,.9,5.9,3.8,6-.5,1.7,2.4,4.6,2.9,4.8,3.2s1.8,8.8,2,10.4l.2,108.4c1.6-1.8,9-.5,9-1v-76h14v-29c2.9.1,25-1.3,25,1.5v115.5h3v-102c2-.4,11.4.5,12,0,1.6-1.5.5-17.5,2-20.9l-6.1,11.3-1.8.2c.8-3,10-16.8,10-18v-19.5c1.8-.2.9,2.3,1,3.5.2,4.2.7,10.9.4,14.7s-2.6,8.6-3.1,12.6.7,11.3-1.3,16.2c1.6-.3,8.6.4,9,0s1.7-11.3,2-13h-8c.4-2.7,6.6-.6,7-1l-5-15c1.7.3,1.7,2,2.3,3.2,1.7,4,3.9,9.9,5,14s1.3,11.4,1.7,11.8,3.1-.2,4,0v69s18.5,0,18.5,0c.3,0,1.9,1.7,2.1,2.5,1,4.9-1.8,17.4-.4,21.9s2.2.6,2.3.6h25.5c.6-9.1-.9-18.4-.9-27.4s.9-3.3.9-5.1c0-6.3-.3-12.7,0-19s-.8-3.7,1-3.5v14c4.8.4,9.6-.4,14.3-.4s1.9-1.9,1.7,1.4h-16v6h18c.3-.7-1-1.2-1-1.5v-19.5h-15l6-1v-91.5c0-3.9,9.2-1.7,10-2.5v-107c1.5,0,9.7,0,10-1.6v-127.8c-.1,0,8.9-1.6,8.9-1.6v-148c0-.4,8,.4,8,0v-66c0-.2,4,.2,4,0v-57c1.1-.2,4.7.3,5,0,1.1-1,.2-25.8,0-29.6s-1.2-4.2-1.1-4.4c.3-.3,1.6.2,2,0,1.4,6.3-1.9,50.2,0,52,.1.1,3.8.1,4,0,1.8-1.7-1.4-43.5,0-49.5-.4-2.5-1.6-2.8-4-2.5ZM602,128c-.7.1-4-.2-4,0v56c0,.2,3.7-.7,3,1-.9.3-7-.3-7,0v65h8v-122ZM618,216h-15v93c2.9.4,5.6-.9,8.5-1.1s6.5,1.6,6.5-.4v-91.5ZM602,251h-14.5c-.1,0-1.5,1.4-1.5,1.5v56.5l16-1v-57ZM626.9,311.1c-1-1.2-15-1.5-17.9-2.1v5c2.8-1.1,17,2.1,18,1s.2-3.5-.1-3.9ZM586,315h15v-5c-5.3,1-16.4-3.3-15,5ZM608,310c-.3-.3-4.8.2-6,0v5c1.3-1.2,5.8-.8,6-1s.2-3.8,0-4ZM627,316l-18-1v126l18-1v-124ZM593,399c.4.2,1.8-.6,2,.6v41.4s6,0,6,0v-125h-15v82c3.2-.2,4.4-.3,7,1-3,1.6-15.5-.1-15.8,2.5s.8.8.8,1v39.5l16-1-1-42ZM608,316h-6v125h6v-125ZM303,357.5v64.5l3.1-2.5v-63.5c-1.2-.3-2.8.7-3.1,1.5ZM616,448v-7c-6.2,2.2-8-1.4-7,7h7ZM637,443c-1-.8-17-1.2-20-2v6s20,2,20,2c-1.3-1.5.2-5.8,0-6ZM594,442l-16,1v6c.6.6,15.3-.4,16-1.1s-.2-4.6,0-6ZM601,442h-6s0,6,0,6h6s0-6,0-6ZM608,442c-5.3-.6-6.6.7-6,6h6s0-6,0-6ZM617,449v114h17.5c.4,0,1,2,2.4-.5v-112.5c0,0-19.9-1-19.9-1ZM616,449c-1.4-.2-7-.3-7,1.5v113.5h7v-115ZM594,450h-16v78c0,.4,8-.4,8,0v37h7s1-115,1-115ZM601,450h-6c.6,38.4-.8,76.7-1,115h7v-115ZM608,450h-6v115c1.4.3,6,0,6-1.5v-113.5ZM809.5,780c7.3-.2,14.7,0,22,0s2.2-1.5,3.5-1v-198.5l-12-23c.7-1.4,1.9,1.3,2.2,1.8,3.5,6,5.6,13.2,9.8,18.7v-57s-27,1-27,1v258.5c.2,1.4,1.3-.5,1.5-.5ZM333,529c3-3.9-6.2-2.1-6.6-2.1-3.3-.2-16.3-2-18.3.1s.2,5.5,0,7c1.6,1.6,23.5-3.1,25-5ZM251,530c-.1-.1-3.4-.8-4-.5.7,2.2,3.4,15.9,4.1,16.4,2.7,2.2,4.1-1.9,4.4-1.9,3-.8,1.8,1.8,3.9,2.1l29.6.9c.2-3.7-.7-7.6,1-11l-38-6c-.4,1.4,1.6,5.4,1,6s-2.9.1-3,0c-.7-.6,1.6-5.3,1-6ZM585,565v-36c-.7-.3-1.2,1-1.5,1h-15.5v35h17ZM250,546l-3.5-13c-3,3.7-3.8,8.7-5.5,13h9ZM250.9,547.1c-.4-.4-10.3-.3-10.8,0s-3.6,11-4.1,12.9l20,1c-2-1.7-4.5-13.4-5.1-13.9ZM256.8,547.2c-.7-.5-5.3-1.1-4.7,1.2s4.5,12.1,5.1,12.4c1.1.6,3.4,0,4.8.2,1-1-4.5-13.4-5.2-13.8ZM289,548l-30-1,6.1,13.9,23.9,1.1v-14ZM256.9,562.1c-3,.8-20.1-1.3-20.9-.7s-4.5,13.1-4,13.6l31,1-6.1-13.9ZM262.8,562.2c-.8-.5-5.5-1-4.8,1.3s5.5,11.4,5.9,11.9c1.1,1.4,4.4.3,6.1.6.6-.5-6.5-13.4-7.2-13.8ZM289,563l-23-.5c4,8.7,2.6,13.6,13.5,14.5s8.9-3,9.5-14ZM211,563c-7.8,0-7.2,9.4-10,15,8.5-1.1,6.6-8.7,10-15ZM625,564c-7.4.1-9,.1-8,8,7.4-.1,9-.1,8-8ZM626,564v106h19v-96c-.5-.5-12.6-.7-14.5-1s-3.1-.2-3.5-2l16.5,1.7c2-.4,2.4-6.8-.2-7.6s-13.1-.2-17.4-1.1ZM616,565c-7.4-.9-7.5,1.4-7,8,7.3-1.3,7.7.2,7-8ZM585,566h-17v7h17v-7ZM593,566h-7v7h7v-7ZM601,566c-6.1.5-7.9-.4-7,7h7s0-7,0-7ZM608,566h-6v7h6v-7ZM617,573v98c1.5-1.4,6.8-.7,7-1,.4-.4,1-8.9,1-10.5,1.5-28.7-1.2-58.7,0-87.5-1.6,1.6-7.7.7-8,1ZM616,573c-1,.5-7,.6-7,1v98c1.4-1.5,7-.6,7-1v-98ZM585,574h-17v62c0,.4,8-.4,8,0v34c0,.5,7.4-.3,9,1v-97ZM593,574h-7v97h7v-97ZM601,574h-7v97h7v-97ZM608,574h-6v97h6v-97ZM220,576c-2.5.5-10.4-.8-11.9.1s-3.7,11.9-4.1,13.9c2.5-2.5,11.4,1.4,12.9,0s1.9-11.9,3-13.9ZM270,586c-2.9-3.1-4.1-5.8-6.7-8.8l-31.7-1.2-3.6,13.1,44,2c.4-.4-1.5-3.9-2-5,2.7,2.9,4.5,6.1,9,5l-.5-3c1.8,4.7,5.3,2.7,9.5,3v-13c-5-.4-10.3,1-15-1l.5,4c-2-4-3.5-3.5-7.5-4,.9,3.2,2.6,5.8,4,9ZM761,605v-7.4c-.1,0-4-21.6-4-21.6v15s-2-.5-2-.5c2,3.6.4,5.9,0,9.1s1,3.1.8,3.3c-.3.4-2.3-.7-1.9,1.1l7,1ZM206,578c-2.8-.2-4.8.8-6.2,3.3-2.9,4.9-7.5,23.2-9.3,29.7s-5,19.6-6.4,26.7-2.6,18.2-4.1,27.3c12.5.3,7.5-6,10-15-.9-.8-6.5,2.7-7,0,1.4-1,6.7-.8,7-1,.5-.5,1.4-12,2-14-.5-.5-5.7,2.7-6,0,9.3.4,7.1-8.3,9-15l-6,1.5c1.1-2.2,5.2-1.9,6.1-3.1s3.3-11.9,2.9-12.4l-5,1.5c.9-2.1,5.3-2.1,5.8-2.7s1.6-10.2,3.2-12.3c-1.2-1.8-4.6,2-5,1.5-2-2.4,4.1-2.4,5.5-4s1.7-9.1,3.5-12ZM276,595c-1-1-1.8-1.9-2.7-3l-46.3-2-2,13,56,2c-1.3-3.9-3.7-5.8-5-10,3.4,3.4,7.1,13.1,12,9.9s-.5-11,0-12.9h-7s3,6,3,6c-4-2.8-2.7-7.6-9-6,.5,1,.7,2,1,3ZM216,591h-13s-3,13-3,13c3.2-2,10.5,1.4,12.9-.1s2.9-10.9,3.1-12.9ZM213,605c-13.5-1.5-14.6-.5-16,13,2.5,0,5,0,7.5,0s3.7-.8,3.5,1c-2.7.5-9.1-.9-11.1.5s-2.2,11-2.9,13.6c.5.5,13.3-.7,13.9-1.1,1.1-.9,2.8-23.4,5.1-26.9ZM288,614c.8-.7-5.1-8-6.5-8-19.2,0-38.4-.5-57.5-2-.5,3.1.8,1.6,2.5,1.9,20,3.6,41.3,4.8,61.5,8ZM760,609l-13,1v14h13v-15ZM208,633c-2.9,1.2-12.6.4-14.1,1.4s-1.8,11.1-2.9,13.6l15.1-1.4,1.9-13.6ZM575,638h-17v33c3-1.3,13.2.5,15.4-.1s1.6-1.1,1.6-1.4v-31.5ZM399,641.5c-.9,3.3,0,16.9,0,21.5s3.9.1,4,0c1.2-1.1-1.3-19.7-1-23-1.1-.3-2.8.7-3,1.5ZM398,663v-16l-7,15.5,7,.5ZM206,648c-2.6.8-12.8.5-14.1,1.4s-2.6,12.9-1.9,13.6l15-1,1-14ZM205,663c-.5-.5-14.3.9-15.1,1.4-2,1.3-.5,10.8-.9,13.6l14.9-2,1.1-13ZM396,664l-8,1c1.4,18.3-.3,36.8,1,55,1.7.4.6-1.5,1.1-1.9s4.4,1.6,5.9.9v-55ZM410,664v143c0,.3,4.1.5,5,1v-137.5c0-.3-1-5.1-1.2-5.3-.3-.4-2.9-.4-3.8-1.2ZM188,665c-12.3-.7-7.4,6.6-10,15,11-.1,10.1-5.6,10-15ZM624,671c-7.3,1.3-7.7-.2-7,8,7.2-.2,7.7-.8,7-8ZM633,671c-8.7-.7-6.7,0-8,7h8s0-7,0-7ZM649.5,671c-4.1-.5-10.1,0-14.5,0s-1.8,5.3,0,6.6,14.9.8,18.1,1.5c-.2-4.1,1.6-7.3-3.5-8ZM575,672h-17v7h17v-7ZM585,672h-9v7h9v-7ZM593,672h-7v7h7v-7ZM600.9,673.1c-.2-.3-6.6-1.4-6.9-1.1v7s7,0,7,0c-.3-1.4.5-5.2-.1-5.9ZM608,679l-1-6.6c-6,.1-5.3.9-5,6.6h6ZM616,672c-6.2.3-8,.2-7,7h7s0-7,0-7ZM204,677l-14.9,2.1c-.6,4.3-1.5,8.6-1.1,12.9l16-1v-14ZM187,693c.5-.5-.4-11.9,0-14l-9.1,2.6v12.4c1.5-.4,8.7-.7,9.1-1ZM633,679l-8,1.1c1.2,13.8-.2,27.6-.1,41.4s1.1,5.4,1.2,8c0,4.8-1.9,9.6-.6,14.5.5.6,7.5.4,7.5,0v-65ZM653,680h-16.5c-.2,0-2-2-2.5-.5v64.5h19v-64ZM575,680h-17v50c12.9-2.2,8.3,6,9,15h8v-65ZM585,680h-9v65h9v-65ZM593,681l-7-1v65h7v-64ZM608,680c-1,.7-6,.7-6,1v64h6v-65ZM616,680h-7v65h7v-65ZM624,680h-7v65h7v-65ZM601,681h-7v64h7v-64ZM204,692c-2.6.8-14.9,1-15.9,2.1s.3,10.6-.1,12.9c3.1-1.3,13.4-.3,15.1-1.4s.5-10.7.9-13.6ZM480,693c-4.9.8-12.8-2.8-11,4,4.9-.8,12.8,2.8,11-4ZM487,693h-6v101h6v-101ZM498,693h-10v101h10v-101ZM178,695c-1,1,.8,24.4,0,28,1.7-1.2,8.7-.7,9-1,.5-.5-.4-11,0-13l-7.5,1-.5-2c1.4,0,7.4-.5,7.9-1.1.8-.9-.3-10.6.1-12.9-1.4.8-8.7.7-9,1ZM480,698h-11v96h11v-96ZM204,707l-16,1,.5,13.1c.8,1.3,1.6.6,2.5.5,1.8,0,12.4-1.1,12.9-1.7.8-.9-.3-10.6.1-12.9ZM437,707h-10v102c1.4.5,10-.5,10-1v-101ZM285,720l-68.4-6.9c-2.3.5-1.5,5.1-1.6,6.9,4.1-1.5,7.2.8,10.5,1,18.8,1.1,39-.1,58,1l1.5-2ZM717,715h-24l1.5,78h22.5v-78ZM205,735l-1-14-16,2c1.9,4,.7,8.7,1,13l16-1ZM285,737v-14l-60-1,2,2.5c-1.9,2-4.1-3-5.5-3.5-.4,3.7-3.1-.4-6.5,0l1,14,15,1c-.9-2.8-6.6-4.7-5.5-8,4.4,2.9,5.6,9.6,11.5,8l-9-9.5c3.7-.9,7.3,6.8,10.4,8.6s33.7.7,41.1.9,3.6.8,5.4,1.1ZM187,723l-9,1c1.5,3.5,2,27,3,28s7.4-.3,9,0c-2.4-6.8,1.9-17.9-9-13-1-4,6.1-1.1,7-2s-.8-11.7-1-14ZM191,751h16l-2.5-15-15,2,1.6,13ZM236,741c-5.1-6.1-12.8-3.4-20-5l1,14c8.7.1,17.4-.6,26,1l-2.5-5c3.4,4.1,5.8,5.9,11.5,5-2.2-3.9-13.1-17.4-18-14l2,4ZM285,738l-43-1c2.7,2.1,10.6,13.2,12.7,13.8,7.2,2.1,21.1-1.5,29.3,1.2l1-14ZM61,743h-10v30c0,.5,8.6.3,10,1v-31ZM633,745l-8,1v6s8,0,8,0v-7ZM643,752c1.1-8.2-2.3-7.3-9-7-1.1,8.2,2.3,7.3,9,7ZM575,746h-8v6h8v-6ZM585,746h-9v6h9v-6ZM593,746h-7v6h7v-6ZM601,746h-7v6h7v-6ZM608,746h-6v6h6v-6ZM616,746h-7v6h7v-6ZM624,746h-7v6h7v-6ZM219,765h37l-.5-3c.6,2.8,8.5,4.9,9.5,4s-1.9-2.5-.5-3c.8.5,2.7,3,3,3h16.5v-13s-28-1-28-1l.5,3c-2.4-3.6-5.6-3.2-9.5-3,.6,2.4,5.9,4.1,4.5,7l-7.2-6.8-27.3-.7,2,13.5ZM207,752h-14.5c-2.5,0,.8,10.6.5,13h16l-2-13ZM189.9,753.1c-.8-.7-7.1.3-8.9-.1,1.2,2,1.6,12.5,2,13s6.5-.3,8,0l-7,1c.4,2.1,2.3,13.3,3.1,14s6.7-1.5,7.9-1c-2.5-3.5-3.8-25.8-5.1-26.9ZM565,753h-17v33h18c.3-.7-1-1.2-1-1.5v-31.5ZM575,753c-2.9,1.7-5.1.7-8,0v41c2.9-.7,5.1-1.7,8,0v-41ZM585,753h-9v39.5c0,2.2,7.1.4,9,1.5v-41ZM593,753h-7v41c0,.3,5.1-.2,6,0l-1,7h2s0-48,0-48ZM601,753c-2.5.4-4.6,1.3-7,0v48h7v-48ZM608,801v-46.5c0-1.7-4.8-1.1-6-1.5v48h6ZM616,753h-7v48h7c-.6-2.3-1.3-3.8,0-6l-6-.5,6-.5v-41ZM624,753h-7v41h7v-41ZM633,753h-8c1.9,9.8-.1,19.6,0,29.5s-.3,10.1,0,10.5,6.7.4,8,1v-41ZM643,753h-9v41c2.9-1.2,6-.8,9,0v-41ZM661,753h-17v41h43s0-7,0-7c-.4-.5-1.3,1-1.5,1h-38.5v-2h14v-33ZM734,753h-8v40h8v-40ZM1461,754v58.5c0,2.6,6.9-1,9,.5v-47c0-.2,2.8.6,3.1-.5.7-2.6-.7-8.3,0-11.5h-12ZM510,762h-11v32h11v-32ZM518,792v-28.5c0-1.5-4.6-1.8-6-1.5.6,3.7-1.6,30.7,0,31.5l54.1.5c-.6-2.3-1.3-3.8,0-6h-47l1,4h-2ZM209,766h-15l2,14h16l-3-14ZM271.5,781h-44.5l.9-1.7,42,.2c-3.5-2.2-8.2-11.2-11.7-12.3s-17.9,0-23.8-.2-10.2-1.9-15.5-1c2.2,4,4.7,26.9,7.6,27.9l55.7,1c1-.4,1.9-1.2,1.7-2.3s-11.6-11.3-12.5-11.5ZM284,767l-23,.5c3.6,2.3,7.6,10.5,11,12s8.3-.4,11.4.5l.5-13ZM1478,768l-7-1c-.5.4,1,1.3,1,1.5v43c0,.2-1.5,1.2-1,1.5l7,1v-46ZM1501,767h-5v45h5v-45ZM333,802v-28.5c0-1.8-10.4-1-12-1.5v31l12-1ZM198,794c-1.2-2-2.5-12.5-3-13s-6,2.1-8,1c3.3,6.7.6,14,11,12ZM212,781h-16l3,13h16l-3-13ZM284,790c-.7-4.2-5.3-9.7-10-9l10,9ZM426,784h-9v24c0,.5,7.8.5,9,1v-25ZM284,796c-6,1.2-57.2-3.3-58-.5s2.1,1.4,3.5,1.5c16.9.8,34-.5,51,0l3.5-1ZM507,795h-26v6h26v-6ZM590,795h-82v6h82v-6ZM699,795h-78v6h78v-6ZM588,802v16h26c1.7-5.2.8-10.7,1-16h-27Z"/>
  <path class="st0" d="M1183,648c1.3,0,5.8-.2,6,0,1.2,1.1-.4,28.3,0,33,3.5-.4,8.2.7,11.5,0s2.4-3.3,4.1-3.9,9.9.4,10.4-.1c-1.5-30.2,2.6-59.7,7-89.3s1.9-.5,3-.7c-2.5,3.4-3,7.7-3.7,11.8-4.6,25.2-4.8,52-5.4,77.6l4,2.1c-2.9,3.4-.9-.5-3.4-.5-1.4,1.7-6.6-1.4-6.6,1.5s14.1,2.7,16,2.5v-155.5c0-1.5,8.6-23.9,10-28,2.6-7.6,9.5-21.6,10.8-28.2,1.3-7,.6-17.9.9-25.5s-1.1-2.2,1.3-2.8v27l2-11,.5,12.1,19.5,54.5c-1.8,2.1-1.5.2-2.1-.9-7.2-14.5-9.5-32.5-15.9-47.6-1.9-.2-.8,2.1-.7,3.2,1.4,14.9,3,29.8,3.8,44.7l16.9,2.1v88c1.6-.2,2.9-.8,4.5-.9s5.1-.4,4.5,1.4c-.4,1.2-7.3.2-9,.5v197.5c-.8,1.3-2.8-1.4-3-1.5.7,0,2.1.4,2-.6v-280.9c-.8-4.2-12.4-2.7-16-4.5v282c5.1.8,9.7,1.3,14,4-2.9-.1-16.3-2.2-18.5-3s-3.9-1.7-2.5-3,4.2,3,6,2v-282l-26.9,1.1c-.8,1.7-1,3.5-1.2,5.3-3.5,49.6,1,105.9,1.1,156,0,39-1.5,77.5-1,116.6,5.7-2.3,10.3-3.6,16.5-3s5.3.4,4.5,4c-1.7,0-.5-1.9-2.9-2.6s-5.1-.6-7.5-.3c-5.7.7-14,4.5-19.7,5.3s-4.8-.7-7.9,0-6.1,4.3-9.5,5.6c-2.9.2-.9-1.1.2-1.8,2.8-1.9,6.1-4.3,9.3-5.2v-124l-27,1v130c3.8,1.4,10.6-1.5,13,2-5.8-1.5-14.5,1.2-19.5.7s-3-1.6-4.9-1.7c-5.8-.2-13.7.9-19.1,0s-2.1-1.8-2.5-2c5.5,1.1,6.2,0,10.5,0s5.6,1.7,8.5,1v-141c-.7-.3-1.2,1-1.5,1h-20.5v137.4c1.1.5,1.9,1,3,1.6-1.2-.2-2.7.2-4,0v-139c-1.7-.2-.9,2.3-1,3.5-1.8,44.4,1.4,90,0,134.5-2.1-.7-3.5-2.8-5-4,1,.3,2,.5,3,1v-96.5c0,0-3-1-3-1l3.1-1v-122.9s-18.1-3.6-18.1-3.6v45s3,.5,3,.5l-3.1,1v172.5c7.7-.9,10,.7,15.1,5-6.2-1.9-7.6-2.8-14.5-3.9s-1.3-1.8-2.1-2c-2.4-.6-5.7.3-8.3,0,.5-2.2,9-.4,9-1v-217l-28,2v213c0,.1,1.5,0,2,0-.5,2.4-3.3,1.7-5.2,2.3s-1.8,1.5-2.3,1.7-.9-3.2-3.5-2l2.1-2.4v-179s-10.1-1.6-10.1-1.6v178.5c0,1.3,5.5,3,7,2.5l-.5,2c-7.2-2.3-8.1-2-8.5-9.4l.6-173.1c-1.4-2.8-6-.5-9.1-.4-6.4,0-12.2-1.2-18.6-1,.8,2.6-.5,12.6.6,14,4.1,5.2,22.1,8.8,23.4,16.5-.3,48.7.6,97.3,0,146,0,3.3,2.5,6.8-2.4,6.5-1.4-.2.5-1.3.5-1.5v-153.5h-9v159.5c0,1.1,1.3,3.6-1,3.5v-163h-29v31h-2v-32c0-.2,2.7-.4,2.5-2,1,0-.4,1.8,1.9,2.1,11,1.4,22.6-3.2,33.6,0l-18-11.4-3,.4c-.5-.4,1-1.3,1-1.5v-15.5l41,1v182.5c0,1.7,5,.8,5,.5v-228c1.8-.2.9,2.3,1,3.5.1,3.2,0,6.4,0,9.5l17-1,10-61c.8,19.9,8,38.9,11,58.5h-1.2c0,.1-8.9-39.5-8.9-39.5-.4,13.7.3,27.3,1,41l20,3v87c2.2,0,.3-4.1,1.1-4.9s2.6.2,2.9,0c.4-.4-.9-5.2-.9-6.5,0-2.8,0-10.5.4-12.6s2.3-1.8,2.8-3,.5-5.5.7-5.7c.4-.4,7.5-.3,8.9-1.1-4.4,5-9.7-2.3-8,8,9.7-1.2,19.3-1.2,29,0-.2-1.2.3-5.7,0-6-.7-.7-13.5-.5-14-1s.5-4.4-1-5.5l2-.5c.2,1.1-.3,4.7,0,5,.5.5,12.9,0,14,1s-.2,7.3,0,9c-.5,0-2.6-2-3-.5l.5,166.5.5-127.5c.8-7.8,6.8-4.3,7.1-6.1.4-2.6,1.1-30.3,0-31.4s-4.8,1.3-5-1ZM1240,501c1.9-4.7,5.3-9.1,8.2-13.3.8-1.3,3-2.9,3.3-3.6.7-1.9-1.2-11.3-1.5-14.1-4.1,3-5.9,9.9-7.7,14.8-5.1,13.1-8.8,26.9-13.3,40.2l26-1-3-38c-2.4-.5-1.6.4-2.2,1.3-3.1,4.5-5.3,10.3-9.8,13.7ZM1124,582c-1.8-12.4-.8-25-1-37.5l-1-10.4-8,49c3.1-1.6,6.6-.9,10-1ZM1179,647h-29v23h-1c.2-3.7-2.9-2.8-2,1h22.5l1.4,141.4,8.1,1.6v-167ZM1216,682h-5s.5,120.6.5,120.6c0,2.4,2.3,3.5,4.5,3.4v-124ZM1225.9,684.1l-8.9-1.1,1,123,8-2.6-.2-119.3Z"/>
  <path class="st0" d="M1291,645l-1-95c1.7-.2.9,2.3,1,3.5.3,7.7-.2,15.4,0,23.1s1,8,1.1,11.9c.3,18.5-.3,37.1,0,55.6h5v-25h1v25c0,.5,9-.5,9,0v169h12v-193h-20v-1s6,0,6,0v-17.5c0-.6-2.5-3.5,0-3.5,1.9,6.9,2.3,13.9,2,21h13s0,80,0,80h10c.3-1.8-.5-9.4,0-10,1.9-1.9,24.7-.7,28.9-1v-15.5c0-1.4-.5-4.4,2-3.5,0,2.9-2,19-1,20s7.6.2,9,1c-2.5-6.5-6-14.2-7.6-20.9-.2-1-1.3-3.3.5-3,1.3,3.1,7.1,24.1,8.2,24.9s2.4-.2,3,.2.9,1.4,1.2,1.6c1.3.6,2.9.3,3.7.8,2.4,1.6.2,31.5.9,37.1.3,2.1,1,0,1,5.9.3,24.1-.2,48.3.2,72.5l6.9,1.1c-1.8-7.3-.3-16.1-.4-23.7,0-12.4-1.7-25.4-.7-37.9.1-1.8-.2-3.9,2.1-4.4v65.5c0,1.9,5,1.9,5,0v-73.5c0-.6-5.9-1.4-7,1,.7-4.3-1.5-2.9-5-3-.2-1.7,2.4-1.1,3.5-1,5.8.4,11.6,2.8,17.4,3.1,1.9,3.3.3,24,1.2,24.9s8.3-.3,10,0v-38.5c0-2.7,9.7-.5,12-1.5v-24c3.3.6,18.1,1.2,18.9,3.6,2.2,6.5-1.7,23.6.1,30.7.3,1.1,3.9,1.4,3.1,4.1v81.1c0,0-1.6-.5-1.6-.5l.6-81.5c-.2-1.2-2.9.1-3.1-1.1-1.5-7.8,2.1-25.2,0-31.8-1-2.9-13.7-1.7-16.9-3.6v24c0,.2-4-.2-4,0v88c0,.3,4.7-.3,6.3.2s2.5,3.4,4.7,2.8v-91c9.6-1.8,9.2,4.4,9,12-1.3.3-1.6-1.9-1.7-2.7-.9-5.8,1.9-8.5-6.3-8.3v89c0,.1,2.5-.7,2,1-5.4,4.2-6.3-1.7-7.7-2s-12.6,0-14.7,0c-7.6.2-15.2.9-23.1,1s-9-2.2-13.5-2l.4-115h-4.4c.7,1.5,1,2.8,1.1,4.5.9,36-.7,72.1-.1,108.1l2.1,2.4c-3.7,1.1-7.5.7-11.3,1.2s-3.4,1.6-5.3,1.7c-3.5.3-8.1-1.9-11.9,0-1.4-.2.5-1.3.5-1.5v-96.5h-6v100c-3.2.5-6.3-.9-9.5-1-11.2-.4-29.5-1.4-40.1-.5-.9,0-2.1,2-2.4,1.6v-3s15,0,15,0v-167h-14ZM1359,689l-28,1v9c8.3,0,16.7-.5,24.9.9,1.5-3-.2-5.8,0-8.9l2,4,1-6ZM1362,690c-2.5-2.5-3.8,9.2-5,10l6,1c.5-.6-.4-10.4-1-11ZM1373,809l-.3-115.5c-.4-2-6.9-2.2-8.7-3.4l1,120c.5.5,7.6-.5,8-1ZM1352,811v-109.5c0-2-11.4.3-14-.5v113h3v-100h-2c1.2-2.5,7,1.1,10,0v97h3ZM1337,701h-17v12c.4.5,1.3-1,1.5-1h15.5v-11ZM1353,701v110c2.3-.4,10.2,1.2,10.9-1.6s-.9-4.1-.9-5.9c-.6-33.7.9-67.9-.1-101.4l-9.8-1.2ZM1320,714v99h17v-100s-17,1-17,1ZM1421,723h-7v38c0,.3,5.1-.2,6,0v1c-.8.2-5-.2-5,0v48h6v-87ZM1394,736v74c1.9-.1,7.3.8,7.7-1.5l-.8-71.5-7-1ZM1414,762h-11v47.5c0,2.6,11,1.1,11,.5v-48Z"/>
  <path class="st0" d="M287,709c-13.2-1.7-26.6-2.3-40-2l37.5,4c.9-.3,4.4,2.1,1.1,2-24.1-3.6-48.3-5.2-72.5-8-.5-30.9,3.5-61.5,7.9-92l67.6,9-1.6,87ZM223,621c-.5-.3-1.9-1.2-2-1l-1,11h7c-1-3.8-2.8-6-4-10,3.1,2,5.2,9.5,8,10.5,4.3,1.5,4.3-1.6,4.5-1.5,9.9,3.8,22.2,1.7,33,2s12.3,2,18.5,1v-11s-64.5-8-64.5-8c-.6,2,0,5,.5,7ZM287,648v-14l-55-1c2.1,11.9-2.2,1-4-.4s-8.1-1.3-8.9,1.1-.2,9.9-1.1,13.4c5.3-2.3,13.4,1.5,18.4,0,1.2-.3-.5-4.7,3-3.1s.8,4.6,6.9,3-1.3-3.2,5.1,0l35.6.9ZM257,658c-2.1-2-7.3-9-8-9.4s-7-1.2-6.5,1.4c-4.1-4-1.6-1.1-2,2-1-.6-2.4-4-3-4h-20.5c0,4.4.4,8.8-1,13,9.3-1.1,19.5,2.2,28.6,1.1,2.1-.2,1.1-2.4,1.9-2.1,4.9,2.2,2.4,3.3,3.4,5.5s7.5,14,11.1,11.4c-1.1-1.2-1.4-2.6-2-4,1.1,1.1,3,3.6,3.2,3.8,1.4.8,4.5-.5,5.8,1.7-2.3,1.6-4.5-2.6-4,1.5-1.6-1.1-2.9-2.4-5-2-.3.3,1.6,4.1,2,5-1.7-1.5-3.8-4.7-5.5-5l-40.5-1v13s52,2,52,2c-2-3.3-4.2-5.4-6-9,5.8,5.3,14.5,13.6,19.7,19.3s2.2,4.4,2.5,4.6,2.8-.8,2.9-.9c.5-.5-2.4-10.3-1-13h-6c-.6.5,4,7.4,4.5,9s1.3,3.2-.5,3c-.9-2.8-3.5-9.3-5.5-11s-3.5.2-5-.9-8.2-11.3-8.5-13.1c3.8,2.7,6.7,10.1,9,11.5s10.6-.1,13,.5c-2.2-4.3-.6-8.6,0-13h-15l-.4,1.9c-2.4-2.3-8.2-15.8-9.8-16.7s-4.9,0-6.8-.2c1.7,3,3.5,5.8,5,9-2-2-8.2-9.1-9-11.5s-.3-1.6.5-1.5c2.2,3.2,4.8,3.4,8.5,3,.3-.3-1.6-4.1-2-5,1.5,1.5,4,4.7,5.5,5h23.5v-14h-33.5c-.4,0-1.7-2.6-1.5.5,2.7,2.5,4.4,5.2,6,8.5ZM246.8,663.2l-30.8-1.2-1,14,40,1-8.2-13.8ZM286,664h-24c1.7,1.7,7.7,14,8.5,14h15.5v-14ZM281,707l-12.7-13.8c-17.7-2.1-35.6-.6-53.3-2.2l-1,13,67,3Z"/>
  <path class="st0" d="M998,465c1.8-.2,1,2.3,1,3.5.3,8.3,0,16.3,1,24.5,4.2-.3,7.7-1.1,11.9,0,2.3,18.9,8.7,38.3,17,55.5v251.4c.4.4,6.3-2.9,7.1,1-3.8-1.6-8,2.1-10.4,2s-3.9-2.7-5.6-3.3c-4.2-1.7-9.1-3.2-12.9,0l-9.1,9.4,6.5-8,.6-131.4-18-2.6v145l9-2c.2,1.5-1.8,1.4-2.8,1.7-5.7,1.7-9.6,1-15.2-.7h8s0-144,0-144l-29,1v138.5c0,1.9,7.6,1.6,9,3-2.8,1-9.4.2-10-3v-138.9c.5-2.1,19.5-1.7,23-2.6v-120c2.9-.6,2.1,1.4,2.1,3.5,0,4.3-1,9.5-1.1,13.9-.7,34.5.6,69.1,0,103.5l2.5-4c-.2,4.8,6.4,2.8,10.5,4v-107.5s2-12.5,2-12.5v121h3v-121h1v121c0,.4,7,.2,7,1v131l3.3-2.2c-.8-3.4.6-6.4.7-9.3s-1-3.6-1-5.1c.9-73-.6-147.2-.1-220.9,0-5.3,1.6-11,1-16.4,2.5,1,0,7.7,1.1,8.9s5.8.5,6.9,1.6c0,1.3-5.9.3-7-.5v241c2.8,1,6.6,1.2,9.2,2.3s6.8,6.9,7.8,1.2v-240.9c0,0-3-1-3-1,4.7,1.3,3.4-10.2,2.1-11.1s-15.2-1.6-18.1-2.4c-.3-1.3,1.7-1.6,2.5-1.5,2.5.1,13.4,3.4,14.5,2.5-6.7-13.6-11.2-29-14-44-1.7.4-2.2,4.4-2.5,5.9-1.7,8.1-2.1,17.1-3.6,25.4s-.2,5.4-1.8,5.7c1.3-14.8,3.8-29.5,7-44h-14.5c-.2,0-1.1,1.5-1.5,1-1.3-3,3-1.7,3-2v-28Z"/>
  <path class="st0" d="M947,629v173.5c0,1.3,3.7,1.8,5,1.5v-69c0-.2-3.3.2-4,0-3.1-2.8,5-1.3,5-1v69.5c0,.1,1.9,2.3-.5,2.5s-5.8-2.3-7-2.5c-1.9-.2-8.2,1.3-9.5.5l1-175h-20c-.2-1.8,2.3-.9,3.5-1,8.9-.4,17.7,0,26.5,1ZM946,630l-8-1v174s8.1-1.6,8.1-1.6v-171.4Z"/>
  <path class="st0" d="M1054,672v136c0,.4,4.3-1,4,1-4.8,2.7-12-.2-7-5l2,4v-132.5c-1-5.3-11.1-.8-15-2.5v128c0,.3,2.9-.6,3,.5l-4,1.5v-128c0-.2-3,.5-3-.5,3.6,0,2.8-2.5,3-2.5h17Z"/>
  <path class="st0" d="M1285,813c.4.4,3.5-.7,4,.5,0,1.1-2.5,0-3.8.7s.1,3-1.2,1.2c-.4-54.3.5-108.7,0-163-.1-18.4-3.5-44.4-1.1-62,.3-2.3,2.6-6,3.9-8.1.3-.5,1.5-3.2,2.2-1.8.1,2-4,7-4,8v224.5Z"/>
  <path class="st0" d="M983,545l2-1.7,5-27.3c1.9-.2,1,3.3.9,4.4-.5,4.9-5.2,18.9-4.6,22.2s4.2,1.5,5.7,1.5c1-4.6-1.9-49.3.5-50s1.4,2.1,1.5,3.5c.6,15.5-.3,31.2-1,46.5,2.3-.4,7.4.8,9.1-.4s-.2-4.6,1.9-4.6l4,4c.3.3-1.3,2-1.5,2h-23.5Z"/>
  <path class="st0" d="M252,481c2.6-5.9,7.1-11.4,11-16.5s13.2-16.3,13.9-15.5l-25,32Z"/>
  <path class="st0" d="M835,455.5c0,.4-1.7,1.6-2.2,2.8-2.1,5.4-4.3,11-6.6,16.4-.7,1.5-1.7,4.8-3.2,5.3,1.2-5.3,3.8-10.6,5.8-15.7s5.2-9.3,5.2-9.8v-46.5h1v47.5Z"/>
  <path class="st0" d="M300,426l-22,22c-.4-1.9,1-2.4,2-3.5,4-4.8,11.7-12.5,16.5-16.5,1.1-.9,1.6-2.4,3.5-2Z"/>
  <path class="st0" d="M1168,630c1,2.7-1.8,1.6-2,2.6-.4,1.9.3,4.3,0,6.4h-4s1-7,1-7l2,6c.6-3.4-2.1-9.3,3-8Z"/>
  <path class="st0" d="M670,811c-.5,1.4-5.2,1.5-6.7,1.6-2.7.2-6.2-.6-9.3.4.1-1.1,5.1-2.6,5.6-2.7,2.7-.2,7.1,1.5,10.4.7Z"/>
  <path class="st0" d="M551,810c.1.1.3,2.2-.5,2-2.4-.5-4.5-3.1-6.3-3.7s-6.5.4-7.3-2.2c2.5.6,5.9.5,8.2,1.3s5.6,2.5,5.8,2.7Z"/>
  <path class="st0" d="M1429,702h13c0,1.8.5,2.1-1.5,2-3.3-.2-6.9-1.8-10.5-1v18c0,.2,3.8-.5,1.5,2-2,.2-6.4.3-4.5-2s2,.1,2,0v-19Z"/>
</svg>