<?xml version="1.0" encoding="UTF-8"?>
<svg id="Layer_1" xmlns="http://www.w3.org/2000/svg" version="1.1" viewBox="0 0 1536 1024">
  <!-- Generator: Adobe Illustrator 29.8.2, SVG Export Plug-In . SVG Version: 2.1.1 Build 3)  -->
  <defs>
    <style>
      .st0 {
        fill: none;
        stroke: #000;
        stroke-linecap: round;
        stroke-linejoin: round;
        stroke-width: 2px;
      }
    </style>
  </defs>
  <path class="st0" d="M780,161.5c-6.3,8.3-8.7,18.4-12,28-5.4,15.9-6.9,32.4-7.5,49-.7,19.3-1.2,38.7-1.7,58-.7,23.7-1.7,47.3-1.9,71-.1,14.5-.7,29-.9,43.5-.5,39.2-1.2,78.3-1.1,117.5,0,7.8.3,15.7,0,23.5-.7,20,.2,40-.7,60,0,1.7.4,3.7.4,5.5.3,39.7-.9,79.3-.5,119,0,4.7-.6,9.3-.5,14"/>
  <path class="st0" d="M823.5,256.5c-16.3.9-32.7.3-49.6.6.2-7.1,0-13.5.5-20.1.9-9.6,1.4-19.3,2-29,1-15.5,3.5-30.9,4.1-46.5.1-3.3,1.4-5.3,5.5-5.1,8.5.3,17,.2,25.5,0,2.9,0,4.1,1,5.6,3.5,9.6,14.9,13.5,31.7,16.7,48.6,2.1,11.2,2.2,22.6,3.1,34,1.6,20.6,2.1,41.3,2.9,62,.3,7.8,1,15.7,1,23.5,0,22.3.7,44.7,1.4,67,.5,16,.3,32,.8,48,.3,8.5,1,17,1,25.5,0,89.2,0,178.3,0,267.5v37"/>
  <path class="st0" d="M616.5,778c-5.3-4.1-11.9-3.9-18-5.4-12.4-3-24.9-5.4-37.5-7.4-14.7-2.3-29.6-4.3-44.5-5.7-23.8-2.3-47.6-3.6-71.5-3.6-22.6,0-45,1.1-67.5,3-24.7,2.1-49.2,5.3-73.5,10.1-17.1,3.3-34.2,6.5-51,11-1.6.4-2.8,1.1-4,2.1"/>
  <path class="st0" d="M937,762c0,6.2.2,12.3,0,18.5-.2,4,1.2,5.3,5.1,5,18.7-1.3,37.3.4,56,0,19.3-.3,38.7-.2,58,0,24.7.2,49.3-1,74-.4,14,.3,28,.5,42,.3,95.2-1.1,190.3-.1,285.5-.4,18.3,0,36.7,0,55,0"/>
  <path class="st0" d="M338,548.5c1.5,5.6.3,11.4.3,17,.3,63.7.2,127.3.2,191"/>
  <path class="st0" d="M514,545.5c-3.9,9.5-6,19.2-6.6,29.5-.9,16.7-.3,33.3-.4,50-.1,19.5-.5,39,.1,58.5.3,10.5,0,21,.1,31.5.2,10.5-.2,21-.4,31.5,0,1.7,1.2,3.3,0,5"/>
  <path class="st0" d="M586,762.5c.2-20.3.6-40.7.5-61,0-23.8.3-47.7-.1-71.5-.2-12.5-.3-25,0-37.5.1-5.3-.5-10.7-.3-16.5h-17.6"/>
  <path class="st0" d="M331,757v-174.3c-15.8-.9-31.6-2.4-48-1.5v20.8"/>
  <path class="st0" d="M1223.5,420.5c1.2,1.5.7,3.4.8,5,.3,3,1.5,4.3,4.2,5,12.6,3.3,22.8,11,33,18.6,11.8,8.7,21.5,19.8,31.5,30.4,17.2,18.2,33.2,37.7,54.5,51.5,18.8,12.2,38.3,23,59,31.5"/>
  <path class="st0" d="M828,603.5c0,18.8-.2,37.7,0,56.5.4,37.8.5,75.7.5,113.5"/>
  <path class="st0" d="M1130,738.5c.1-9-.5-18-.5-27,0-49,0-98,0-147s-3.6-10.4-10.5-9.9c-10.3.8-20.7.1-31,.4"/>
  <path class="st0" d="M962,527c-5.2,2-10.5,3.8-16.5,5.1-.4,68.8.4,137.6.5,206.4"/>
  <path class="st0" d="M1087.5,547.5v171.5"/>
  <path class="st0" d="M1121.5,555.5c-1.3,2-1,4.3-1,6.5,0,46.7,0,93.3,0,140,0,5.5.4,11,.4,16.5"/>
  <path class="st0" d="M1155.5,579.5c-5.1,2.3-10.8,2.8-16.1,4.8-3.2,1.2-3.5,2.9-3.5,5.7,0,11.5.2,23,0,34.5-.3,18-.9,36-.3,54,.7,22.7-.3,45.3.9,68,.3,5.3.8,6.3,6,5.8,2.5-.2,2,.9,2,2.2"/>
  <path class="st0" d="M427,749c0-31,.1-62,0-93,0-6.8-.9-13.7-.3-20.5.8-9.5-.2-19-.1-28.5,0-2.4-.4-4-3.5-4.1-3.7-.2-7.3-.9-11-.9-12.8-.2-25.7.6-38.5-.4-1.3-.1-2.8.3-4,1.4-3.1,2.6-6,5.4-10,6.5-1.5.4-1.5,1.3-1.5,2.5,0,1,0,2,0,3,0,39.7-.2,79.3.2,119,0,6.5-.9,13.1.8,19.5"/>
  <path class="st0" d="M774,257.5c-1.6,5.1-1,10.3-1,15.5,0,13.8-.3,27.7-.7,41.5-.7,28.2-.1,56.3-.4,84.5-.1,14.7.5,29.4-.1,44-1,23.7.3,47.3-.8,71-.5,11.3.4,22.7.2,34-.3,18.5.3,37,0,55.5-.7,47.5,0,95-.4,142.5,0,1.7.3,3.4-.5,5"/>
  <path class="st0" d="M367,611.5c-1.2,12.5-.6,25-.3,37.5,0,4.4-.3,8.7-.2,13,0,15.2.1,30.3.5,45.5.3,13.5.2,27-.4,40.5,0,1.7-.3,3.4.5,5"/>
  <path class="st0" d="M678,596.5c-2.4,5.7-.8,11.7-.9,17.5-.3,22.2,0,44.3-.2,66.5-.1,13.2-.5,26.3-.5,39.5,0,13.5-.2,27,.3,39.9,3.3,2.5,7.1-.9,9.3,2.6"/>
  <path class="st0" d="M1185,547c-.7,35.5-.7,71-.3,106.5,0,8.8-.4,17.7.8,26.5"/>
  <path class="st0" d="M1207,784c.3-1.4-.5-2.6-.6-4-.3-3.5-2.1-5.1-5.9-5.1-15.5.2-31,0-46.5,0-28.7,0-57.3-.1-86,0-15.2,0-30.3-.6-45.5.4-2.3.1-4.6.9-7,.5"/>
  <path class="st0" d="M1189,546.5c0,41.2,0,82.3,0,123.5,0,2.6-1.3,5.4.4,8"/>
  <path class="st0" d="M753.5,612c-3.8,1-7.7,0-11.5.9-1.2,4.6-.6,9.1-.6,13.6.1,29.3.3,58.7-.1,88,0,6,1.3,12-.3,18"/>
  <path class="st0" d="M610.5,767.5c1.1-36.8.3-73.7.4-110.5,0-4,1-5.2,5.1-5.1,12.2.3,24.3.1,36.1.1,1.4,1.5.9,2.8.9,4,0,37.5,0,75,0,112.5,0,1.5.3,3.1-.5,4.5"/>
  <path class="st0" d="M979,514.5v210.5"/>
  <path class="st0" d="M979.5,527h45.2c-.7,66.2-1.5,131.8-1.2,197.5"/>
  <path class="st0" d="M970.5,601.5c1.1,1,.5,2.3.5,3.5,0,38.5,0,77,0,115.5,0,1.5.3,3.1-.5,4.5"/>
  <path class="st0" d="M1165.5,425c-2.8,2.6-6.9,1-8.3-.2-6-5.5-11.5-2.9-17.2-.2-9.4,4.3-17.3,10.9-25.5,17-20,14.7-38.7,31.1-60,44-8.8,5.3-18.2,9.6-27.5,14.1-1.8.9-2.8.4-4.1-1-1.8-2.1-4.4-3.8-5.9-6.1-2.9-4.4-6.8-4.9-11.6-4.6-6,.5-12-.1-18,.2-2.4.1-5,.5-6.6,3.3-1.9,3.6-5.3,6.2-6.9,10.2.2,1.7,2,1.2,3,1.9"/>
  <path class="st0" d="M826,317.5c1.5,6.6,1,13.3,1,20,0,21.2,0,42.3,0,63.5,0,.8.4,1.8-1,3h-53"/>
  <path class="st0" d="M985,489.5c-3,10.6-9.2,19.3-18.2,25.3-5.3,3.5-4.2,8.3-4.1,12.2.6,23.2.1,46.3.2,69.5.2,36,0,72,0,108,0,6.8-.7,13.7-.6,20.5"/>
  <path class="st0" d="M1159,551.5c-1.2,9.6-.4,19.3-.5,29-.1,38.8,0,77.7,0,116.5,0,.8-.4,1.8.5,2.5"/>
  <path class="st0" d="M685.5,622c1.8,1.4,1,3.3,1,5,0,16.7-.2,33.3.1,50,.2,11.5.3,23,.5,34.5.2,15-1.3,30,0,45"/>
  <path class="st0" d="M1143.5,758c-6.2.3-12.3.3-18.5.2-9.1-.1-18.3-.3-27.5.1-10.5.5-21,.4-31.5-.2-7.1-.4-14.3-.3-21.5.2-8.6.6-17.3.1-26,.1"/>
  <path class="st0" d="M589,791c4.5-9.6,13.5-10.7,22.5-12.1,9.2-1.3,18.4.4,26.3,3.5,10.2,4.1,20.2,2.3,30.2,2.7,21.3.9,42.7-.7,64-.2,11,.3,22,.7,33,.4,33.7-1,67.3-.1,101-.4,3.2,0,6.4,0,9.2,0,1.6-2.3,0-4.7,1.5-7,2.2,0,4.7,0,7.2,0"/>
  <path class="st0" d="M888,570c0-14.3,0-28.7,0-43,0-2.6.6-3.6,3.5-4.2,7.3-1.4,14.4-4,22.5-2.4,0,4,0,8,0,12,0,15.8.1,31.7,0,47.5,0,3.6,1.2,4.7,4.6,4.6,5.5-.2,11,0,17,0,0,51.5-.2,103,.7,155.2,6.5-1.1,13.1.9,19.8-.2"/>
  <path class="st0" d="M733.5,661h-39.5c-1.6,1.4-1,2.5-1,3.5,0,28.7,0,57.3,0,86,0,1-.6,2.1.5,3"/>
  <path class="st0" d="M640,529c2,3.5,1.4,7.5,1.3,11-.8,37,0,74-.3,111"/>
  <path class="st0" d="M849.5,739c.7-2,.5-4,.5-6,0-53.7,0-107.3,0-161.5,9.5,0,19-.5,28.5.2,4.2.3,7.9-1.6,12-.9,3,.5,3.8,1.3,4.1,4.2.4,4,.4,8,.4,12,0,44.5,0,89,0,133.5,0,4.9.4,4.9,5.5,5.1,8.2.3,16.3-1.3,24.6.6,4,.9,4.5,2.1,4.5,5.3,0,2.2-.5,4.4.5,6.5-1,1.2-2.4,1.7-4,1.5"/>
  <path class="st0" d="M715.5,640c5.2,0,10.3-.1,15.5,0,2.7,0,3.7-1.2,3.5-3.5-1.2-17.2,0-34.3-.6-51.9-6.2-.4-12.5,1-18.8.3-1.2,2.5-.2,4.8,0,7.1.3,4.4-.5,8.7-.4,13,0,2.1-1.1,2-2.5,2-4.5,0-9,0-13.5,1"/>
  <path class="st0" d="M462,788.5c3.5,1.3,7-.2,10.5,0,10.5.4,21-.4,31.5.6,1,0,1.5-.4,2.4-1.5-6.3-7.8-13.2-13.3-24.3-14.6-6.2-.7-11.8-.7-17.5.6-9,2.1-15.3,8.1-20,15.9-.3.5,0,1.3,0,2"/>
  <path class="st0" d="M821,204.5c1.8,7.9,1.5,16,2.1,24,1.2,15.7,1.9,31.3,2.2,47,.2,13.6,1.8,27.3.4,41.5-17.6-.2-35.1-.1-52.6,0"/>
  <path class="st0" d="M827,404.5c1.3,6.5.3,13,.4,19.5.8,28.7.5,57.3.6,86,0,23.8.1,47.7,0,71.5,0,5.7.5,11.3.6,17,0,3.4-1,4.6-4.6,4.6-15-.2-30,0-45-.1-2.4,0-4.7.4-7,.5"/>
  <path class="st0" d="M1232,411.5c1.7-2.4,1.5-5.5,3.9-8-8.3-4.3-16.5-7.2-23.8-11.6-6.6-4-13.1-2.5-19.6-.8-11.3,2.9-22.9,4.3-34.1,7.7-3.6,1.1-4.9,2.6-4.9,5.7,0,3.6,2.6,5.4,6.4,5.5,7.7.2,14.6-3.4,22-4.5,5.4-.9,10.7-2.6,16-4.1,4.5-1.3,8.3-.9,12.6,1.4,6.9,3.8,14.6,6,21.5,10-1.1,6-1.1,11.8-1.1,17.7"/>
  <path class="st0" d="M543,428.5c-1-5.8-1-11.6-1-17.5,0-13,.7-26,.1-39-.2-3.2,1.2-6.6-3.2-8.1-11.8,11.2-24.4,21.6-36,33-3,3-4,6.1-4,10.1,0,18,0,36,0,54s-.2,48.3,0,72.5c.1,15.7-.8,31.3.4,47,0,1-.7,1.8-1.5,2.5-21.1-4.1-42.3-.1-63.7-1.1-1.1,13.2-.8,25.9-.8,38.6,0,8.8,0,17.7,0,26.5s-.1,24,0,36c.1,8.2.3,16.4.2,24.5,0,13.8,0,27.7-.8,41.5"/>
  <path class="st0" d="M1015,784.5c0-9.2,0-18.3,0-27.5,0-1.4,0-2.9-1-4-7-8-15.2-12.9-26.5-11.2-5.2.8-10.7.5-16,1.1-6.5.7-12,3.2-17,7.5-6.7,5.7-11.8,7-19.3,1.4-8-5.9-16.9-6.9-26.1-7.2-6.5-.2-13-1.3-19.5-.2-2.4.4-4.8.7-7,1.6-5.5,2.3-8.2,8.5-7.5,16.4,1,11.5.9,11.9-10,11.4-18.3-.8-36.7.2-55,0-5.6,0-11.1-.1-17.2,1.8,2.3,2.4,2.4,5.3,2.2,8.2"/>
  <path class="st0" d="M352.5,546.5c.1-6.2-.1-12.3,0-19.1,14.1.6,27.8,0,41.4,2.3,0,18.6,0,36.9,0,55.3,0,2.3.1,4.7,0,7"/>
  <path class="st0" d="M1397.5,628c-8,4.6-16.4,8.6-24,13.9-9.7,6.8-18.3,14.6-25.5,24-4.9,6.4-10.5,12.3-14.8,19.4-9.3-5-18.6-9.2-28.1-13-8.8-3.4-17.6-5.5-27-6-11.5-.7-22.9-1.7-34.5-.5-9,.9-17.5,3.4-26,6.2-20,6.7-39,15.8-53.2,31.7-4.5,5-8.9,9.8-14.3,13.7-2.5,1.7-2.6,4-2.5,6.5,0,3.8.4,7.7-.5,11.7,2.4,1.6,5,.9,7.5.3,8.3-1.9,16.6-3.6,25-4.5"/>
  <path class="st0" d="M50.5,785c6.3,1.1,12.7.4,19,.5,14.2.2,28.3-.5,42.5-.5,14.7,0,29.3,0,44,0,2.8,0,5.7,0,8.5,0"/>
  <path class="st0" d="M1302.5,754.5c1.1-9.3.2-18.7.6-28.2-23.9.6-47.2-.2-70.6.2"/>
  <path class="st0" d="M817,161.5c-2,2.7-.2,5.5.2,8,1.5,10,2.3,20.1,3.8,30,.2,1.3,0,2.7,0,4.5-11.3,0-22.2.1-33,0-3.3,0-6.7,1.5-10,0"/>
  <path class="st0" d="M1306.5,660.5c-2.6,1.2-5,0-7.5-.5-13.9-2.6-28-2.6-42-1.8-14.1.8-27.8,4.4-40.9,9.5-9.7,3.7-19.4,7.2-28.7,12.2-10.2,5.5-18.7,12.9-27.4,20.2-2.1,1.8-1.6,4.1.5,5.9"/>
  <path class="st0" d="M1325,673c-2.9-4.6-6.6-7.7-11.9-9.7-6.1-2.2-11.3-6.2-18-7.5-8-1.6-16-2.7-24.1-3.6-9.8-1.1-19.6-1.5-29.5-1.1-5.3.2-10.6,2-16,.5"/>
  <path class="st0" d="M1410,631c-1.1,2.6-1,5.3-1,8,0,39.5,0,79,0,118.5"/>
  <path class="st0" d="M642,540c4.1-.7,4.6.9,4.7,5,.3,21.3.3,42.7.3,64,0,14,0,28,0,42"/>
  <path class="st0" d="M1232.5,408.5c-7.6-4.9-15.8-8.7-24-12.5-5.3-2.5-10.5-.5-15.5.6-11.9,2.7-23.8,5.2-35.5,8.3-1,.3-1.5,1.2-2.5,1.1"/>
  <path class="st0" d="M1011,489c2.2,5.5,6.2,9.9,9.8,14.3,3.4,4.1,4.9,10.1,10.7,12.3,1.3.5.5,2.3.5,3.4,0,10.7-.3,21.4.1,32,.5,10.7,0,21.3.2,32,.5,32.8.4,65.7.1,98.5,0,10,.8,20-.4,30-.2,1.9-.5,3.9,1,5.5"/>
  <path class="st0" d="M434.5,610c19.8,0,39.7,0,59.5,0,5.4,0,6.2.5,5.4,5.5-.8,4.8.4,9.4.1,14,0,1.7.4,3.5-.7,4.9-7.6.5-15,.2-22.3.5-7.3.2-14.7-.6-22-.2-6.7.4-13.4-1-20,.4"/>
  <path class="st0" d="M323,604c-5.1-1.5-10.4-.6-15.5-.8-14-.6-28-.2-42.5-.2,0,55.8,0,111.2,0,167.2,7.7-1.8,14.9-3.1,22-4.7,10.4-2.3,21-3.9,31.5-5.7,12-2.1,24-3.3,36-4.9,12.3-1.6,24.6-2.9,37-3.3,19.7-.8,39.3-2.7,59-2.6,15.4.1,30.7,1.2,46,2.5,2.9.3,3-1.1,3-3.1,0-8.5,0-17,0-25.5s0-15,0-22.5c0-3-.7-4-4-4.1-20.3-.5-40.7-.4-61-.4"/>
  <path class="st0" d="M124,724c-3.2-1.2-6.6-1.4-10-1.5-11-.3-22,.7-33-.5-1.1-.1-2.1,0-3,1-6.5,7.5-14.9,9.7-24.5,9-1.5-.1-3.1-.3-4.5.5"/>
  <path class="st0" d="M1428,636.5v74.5"/>
  <path class="st0" d="M516,621.5v31.5c0,31.7,0,63.3,0,95,0,3.9.7,5.5,5.1,5.6,11.9.4,23.5,4.2,35.5,3.2,7.5-.6,15-.8,22.5-.9,2.1,0,2.6-.2,2.7-3,.8-22,0-44,.3-66,0-3.4-1.6-5.1-5-5-16.5.3-33-.7-49.5,1-2.6.3-5.3,0-8,0"/>
  <path class="st0" d="M451.5,581c-1.1-13.1,0-26.3-.7-39.7-15-1.3-29.7-3.5-43.9,3.1.2,15.8-.4,31.9.5,48.1"/>
  <path class="st0" d="M1302.5,701c-5.7-2.7-11.9-3.6-18-4.9-10.2-2.2-20.6-2.7-31-2.9-17.5-.3-35.1-1.2-52.5,2.3-12,2.4-23.4,6.5-34.5,11.6-1.5.7-2.7,2.1-4.5,2"/>
  <path class="st0" d="M538,644c-.6-2.5-2.2-4.3-4-6-5.7-5.6-11.4-11.3-17-17-2.4-2.4-2.2-11.1.5-13.9,6.6-6.9,10.5-15.9,17.9-22.1.2-.1.5-.9.6-1.4,1.9-6.7,2.3-6.9,8.4-3.5,12.4,6.9,23.7,15.4,35.1,23.9,2.2,1.7,2.3,3.6,2.4,5.6.1,22.7,0,45.3.1,68,0,.6-.8.9-.5,1.5"/>
  <path class="st0" d="M1467,682c-1.6-5.1-.8-10.3-1.4-15.5-.5-4.8-2-9.4-3.2-14-.8-3,.4-6.2-1.4-9-7-11.1-16.5-18.1-30-19.6-9.6-1-18.7.8-28,2.4-9,1.5-18.1,2.2-27,4.1-18.6,4-37.4,7.3-54.5,16.5"/>
  <path class="st0" d="M1050.5,708.5c0-22-.7-44-.5-66.5-2.9.2-5.1-.9-8-.4,0,1.3,0,2.3,0,3.4,0,14.2,0,28.3-.5,42.5-.3,6.8.8,13.7.6,20.5,0,1.8,0,3.5-1,5"/>
  <path class="st0" d="M1302.5,711c-1.6-1.1-3.3-.5-5-.5-21.7,0-43.3,0-65,0"/>
  <path class="st0" d="M1239.5,526c-6.5-7.7-14.9-13.4-21.5-21-.5-.6-1-1.1-2-1-6.4.7-12.7-.8-19-1-1.8,0-2.9,1-4,2.1-7.2,7.4-14.5,14.5-22.5,21"/>
  <path class="st0" d="M1336,757.5c1.5-4.8.1-9.7.3-14.5.4-14.5,1.5-29,.9-43.5-.3-8.6,2.3-15.5,6.9-22,12.7-18.2,29-32.3,49-41.9,5-2.4,10.2-5.1,15.9-5,9.3.2,17.9,3.1,25,9.4,5.3,4.8,10.3,9.9,11.5,17.5.4,2.5-.5,5-.5,7.5.1,15,0,30,0,45,0,1.2.6,2.5-.8,3.9-22-4.5-44.6-2.9-67.2-2.8-13,0-26.1.8-39,2.9"/>
  <path class="st0" d="M1136.5,752c-1.6,1.1-3.3.5-5,.5-37,0-74,0-111,0-1.8,0-3.7-.4-5.5.5"/>
  <path class="st0" d="M1386,640.5c1.1,1.6.5,3.3.5,5,0,21.7,0,43.3,0,65"/>
  <path class="st0" d="M245.5,785c-3.8,1.5-7.7,0-11.5.3-11.6.6-23.3,0-35-.3-9-.2-18,.8-27,.6-2.2,0-4.4-.3-6.5-1"/>
  <path class="st0" d="M1302,741.5c-23.2-.5-46.3,1.1-69.5,1"/>
  <path class="st0" d="M1260,622c7.3,0,14.7.2,22,0,4.1-.2,6.3,1.7,6.1,6.1-.3,4.8,0,9.7,0,15-14.5-.3-28.5,0-42.8,2.2-.6-3.4.4-6.1.3-8.8-1.3-29.2,0-58.3-.9-87.5-.2-5.8-.2-11.7.3-17.5.3-3.8-2.2-5.2-5-4.9-6.5.8-12.6-1.5-19-1.9-11.5-.6-23,.3-34.5.4-4.8,0-9.8,1.4-14.5,1.4-5.1,0-5.2,1.9-5,5.4.1,1.8-.5,3.7.5,5.5"/>
  <path class="st0" d="M1078,651.5c1.1,1.6.5,3.3.5,5,0,21,0,42,0,63"/>
  <path class="st0" d="M549.5,286.5c-.8,1.8-.5,3.7-.5,5.5-.3,20.8.4,41.7-.2,62.5,0,3-1.7,2.8-2.8,3.4-4.9,2.5-9.9,2.8-15,.1-.9-.5-1.9-.7-3-.5"/>
  <path class="st0" d="M375,789.5c-.8,1.1-.7,2.7-3,2.6-9.7-.2-19.3,0-29-.2-3,0-5.2-1.1-7.2-4.3-9.8-15.5-34.1-15.3-41.9.1,1.8,2.1,4.3,1.6,6.6,1.8,5.7.5,9.3-2.4,12-7"/>
  <path class="st0" d="M543.5,493.5c-2.8,3.9-1.3,8.4-1.4,12.5-.3,15.8-.1,31.7-.1,47.5,0,21,.2,42-.1,63-.1,7.7-.6,15.3.1,23"/>
  <path class="st0" d="M526.5,286.5c-.2.3.4.7.4,1-.2,19.7.7,39.3-.4,59-.1,2.3-.7,4.7.4,7"/>
  <path class="st0" d="M1064,610.5c1.2-9.2.1-18.3.7-27.7-4.8.5-8.9,1.6-13.7,1,0,7.3-.3,14,.2,20.6.2,2.4-.4,4.4-.7,6.5"/>
  <path class="st0" d="M535.5,502.5c1,2.4.5,5,.5,7.5,0,17.5,0,35,.5,52.5,0,1.6.6,3.4-.5,5"/>
  <path class="st0" d="M701.5,679.5c-.6,19.8-.5,39.7-.5,59.5,0,1.9-.7,4.1,1.5,5.5"/>
  <path class="st0" d="M434.5,596.5c2.1.7,4.3.5,6.5.5,19.2,0,38.3,0,57.5,0"/>
  <path class="st0" d="M498.5,684h-64"/>
  <path class="st0" d="M498.5,647c-2.9-1.2-6-.4-9-.5-16.7,0-33.3,0-50,0-1.7,0-3.4.6-5-.5"/>
  <path class="st0" d="M543,368.5c6.1,6.4,9.9,14.4,15,21.5,2.2,3,4.3,6,6.5,9,2.6,3.6,3.6,7.6,3.5,12,0,17.3.2,34.7-.1,52-.2,12.5-.3,25,0,37.5.3,11.3-.3,22.7-.9,34"/>
  <path class="st0" d="M498.5,720h-64"/>
  <path class="st0" d="M498.5,732c-2.8,1.5-5.7-.1-8.5-.1-18.5.2-37,.1-55.5.1"/>
  <path class="st0" d="M498.5,659h-64"/>
  <path class="st0" d="M498.5,708h-64"/>
  <path class="st0" d="M498,622h-63.5"/>
  <path class="st0" d="M17.5,785c9.8,0,19.7,0,29.5,0,1.1,0,2.1,0,3-1,4.5-4.3,9.9-5.2,16-5.1,21.7.3,43.3.1,65,.1s15,.1,22.5,0c4.5,0,8.1,1.8,11.5,4.5"/>
  <path class="st0" d="M534.5,568c-4.2-9.3-6.8-19.3-11.5-28.5-1.3-2.6-2-5.6-4.7-7.6-1.8,3.5-3.3,6.9-2.9,11.1.8,8.1.3,16.3.2,24.5-.2,13.3-.8,26.7.4,40"/>
  <path class="st0" d="M500,401.5c11.9,9,23,19.1,35,28,.7.6.9,1.4.9,2-.3,21.7.7,43.3-.5,65,0,.7.1-.2,0,.5"/>
  <path class="st0" d="M479.5,774c-2.7,1.7-5.8,2.4-8.6,3.9-5.7,3-9.6,7-10.2,14.1-12.5,0-24.9,0-37.2,0-3,0-2.8-2.3-3.5-4-3.2-7.9-14.5-15.7-24-14.7-7,.7-13.4,4.7-18,10.7-1,1.3-2.2,2.5-3.8,4.9,15.5.2,30.2,0,44.8,0"/>
  <path class="st0" d="M93.5,778.5c1.1-8.5.2-17,.5-25.5,0-2.6-1.9-3.7-3.2-5.2-3.5,1-3.9,3.3-3.9,6.2.1,8,0,16,0,24"/>
  <path class="st0" d="M901.5,521c.8,1.6.5,3.3.5,5,0,19,0,38,0,57"/>
  <path class="st0" d="M366,606.5c.6,3.7,2.7,4.7,6.5,4.6,16-.4,32,.8,48,.4,1.7,0,3.4.6,5-.5"/>
  <path class="st0" d="M116.5,729.5c-5.4,3.7-11.7,4.8-18,4.9-14.5.2-29,.5-43.5,2-4.3.4-5.9-3.5-8-6.4"/>
  <path class="st0" d="M708.5,677.5c-.4,20.3.6,40.7.5,61"/>
  <path class="st0" d="M535.5,368.5c1.1,4.8.4,9.7.5,14.5.1,12.3,0,24.7,0,37,0,2.8,0,5.7,0,8.5"/>
  <path class="st0" d="M716.5,677.5c.3.6-.5.9-.5,1.5,0,18.8,0,37.7,0,56.5,0,.6.8.9.5,1.5"/>
  <path class="st0" d="M1147.5,737c.1,2.7-1.7,2.5-3.5,2.5-39.2.7-78.3.6-117.5.4-7.2,0-14.3-.5-21.8,0-1.7-2.8-1.1-6.4-.9-9.4.2-4.6-2.4-5.1-5.3-4.9-10.9.9-21.7.1-32.5,0-9.5-.2-9.5,0-9.5,9.5,0,1.5.7,3.1-.5,4.5"/>
  <path class="st0" d="M1023.5,509c-4,1.2-7.9.7-12,.6-10.3-.3-20.6,1-31,0-3.9-.4-9.5,6.6-9.5,10.9.4,22.5-.5,45,.3,67.5.1,4.1,0,8.3-.3,12.5"/>
  <path class="st0" d="M365.5,548c-4.2,0-8.3-.6-12.5-.9-8.9-.7-17.7.6-26.5,1.4-5.2.5-10.3,1.5-16,1.6,0,7.3-.5,14.7.2,21.9.3,3.1-1.4,6.1.3,9"/>
  <path class="st0" d="M172,544c-4.6,4.8-7.1,11.1-11.5,16-10.7,12-23.3,20.6-40,21.5"/>
  <path class="st0" d="M322.5,654c-11.5,1.4-23,.3-34.5.5-7.3.1-14.7,0-22,0"/>
  <path class="st0" d="M323,727.5c-18.8-.7-37.7-.5-56.5-.5"/>
  <path class="st0" d="M322.5,618c-4.3,1.4-8.7,0-13,0-14.5,0-29,0-43.5,0"/>
  <path class="st0" d="M322.5,630h-56.5"/>
  <path class="st0" d="M266,642c10.8.8,21.7.6,32.5.4,8-.1,16,.7,24-.4"/>
  <path class="st0" d="M322.5,667h-56.5"/>
  <path class="st0" d="M322.5,739c-1.6,1.1-3.4.5-5,.5-17.2-.5-34.3-.8-51.5,0"/>
  <path class="st0" d="M323,715c2.1-3.3-.5-7.1,1.2-11.4-19.6.3-38.9.9-58.2-.1"/>
  <path class="st0" d="M322.5,679c-18.8,1.2-37.7-.2-56.5,0"/>
  <path class="st0" d="M266,691c1.6.8,3.3.5,5,.5,17,0,34,0,51,0"/>
  <path class="st0" d="M266.5,751c5.2.8,10.3.2,15.5.1,13.5-.3,27,.2,40.5.9"/>
  <path class="st0" d="M827,533h-55"/>
  <path class="st0" d="M827,587h-55"/>
  <path class="st0" d="M827,515h-55"/>
  <path class="st0" d="M366.5,529c0,23.2,0,46.3,0,69.5,0,1.7-.6,3.4.5,5"/>
  <path class="st0" d="M734,640.5c1.2,7.5.1,15,.5,22.5,1.1,22.2.2,44.3.5,66.5"/>
  <path class="st0" d="M723.5,678.5c.8,1.6.5,3.3.5,5,0,14.8,0,29.7,0,44.5,0,1.7-.3,3.4.5,5"/>
  <path class="st0" d="M1185,527.5c0,2.9.8,5.6.4,8.7,10.9-2.4,21.3-1,31.6-.7,9.1.3,18,2.4,27,3.4"/>
  <path class="st0" d="M175.5,540c4.4.5,7.7,2.2,10.1,6.4,8.4,14.5,21,24.6,35.8,32.2,3.7,1.9,7.7,0,11.1,2.3"/>
  <path class="st0" d="M1187,537c0,1.2,0,2.3,0,3.5-.4,5.2-.1,5.6,5.5,5.5,17.3-.4,34.4.9,51.5,3"/>
  <path class="st0" d="M1303,644c1.4-1.5,1.2-3.3,1-5-1.3-10.7.5-21.3,0-32,0-2.7-.6-5.3-.9-8.4-11.5.6-22.8.3-34.3.4-1.1,7.3.5,14.7-.8,22"/>
  <path class="st0" d="M826.5,420c-1.5,1.3-3.3,1-5,1-13.2-.2-26.4.8-39.5-1-3.1-.4-6,1.1-9,1"/>
  <path class="st0" d="M567,594c1.4-6.1.7-12.4.8-18.5,0-10.7-.6-21.3.3-32,.1-1.6-.1-3.1-1.3-4.8,6.5-1.6,12.6-.5,19.1.8.7,12,1.3,24,.2,36.1"/>
  <path class="st0" d="M535.5,585.5c1.1,1,.5,2.3.5,3.5,0,13.5,0,27,.5,40.5.1,3-.5,6-1,9"/>
  <path class="st0" d="M158,748.5c31.5-1.1,63-.2,95-.6,0,8.6,0,16.6,0,25.2,4.2-1.2,8.1-1,11.5-3.1"/>
  <path class="st0" d="M773,334.5h53"/>
  <path class="st0" d="M641,784.5c-7.3.9-14.7.9-22,1-3.9,0-7.5,1.2-10.5,3.6-3,2.4-6.3,3.1-10,3-8.2-.2-16.3,0-24.6,0-1.3-5.6-3.7-10.4-9.4-13-12-5.5-33.7-3-37.5,12"/>
  <path class="st0" d="M1360,659.5c1.1,7.1.4,14.3.5,21.5.2,10.2,0,20.3,0,30.5"/>
  <path class="st0" d="M1129,556.5c.8-2.7,1.5-7-.1-7.7-4-1.6-6.5-6-11.4-5.9-9,.2-18,0-27,0-2,0-4.1,0-5.5,1.6-1.7,2-4,1.7-6.5,2.7,0,5.3,0,10.8,0,16.3,0,27.3,0,54.7,0,82,0,3.2.2,5.9-4.5,5.6-3-.2-3.6,2.5-3.6,5.4.1,20.8,0,41.7,0,62.5"/>
  <path class="st0" d="M1310,645c-1.2-7.6,0-15.3-.6-23.5,15.8,1.1,31.4.2,47.2.7,1.1,4.1-.3,8.1.9,11.9"/>
  <path class="st0" d="M206.5,703c-11.6,8.6-24.4,11-38.5,8.1-3.3-.7-6-2-8.5-4.1-1.2-1-2.1-2.6-4-2.5"/>
  <path class="st0" d="M926,756.5c-8.5-5.7-18.2-6.2-28-6-8.6.2-15.9,3.6-22,9.5"/>
  <path class="st0" d="M248.5,712c-2.3,5.7-8,6.6-12.5,6.7-9.8.2-19.7-1-27.9-7.3-.8-.6-1.8-.7-2.7-1.6-2.5,5.6-8.1,5.7-12.8,6.5-8.2,1.4-16.6.8-25,.6-5.2-.1-9.8-2.5-14-5.4"/>
  <path class="st0" d="M415.5,542.5c1.1,8,.7,16,.4,24-.4,8.7-.1,17.3-.4,26"/>
  <path class="st0" d="M824,272.5c-5.5-1.2-11,0-16.5,0-11.2.1-22.3,0-33.5,0"/>
  <path class="st0" d="M434.5,671c21.2.2,42.3,1.8,63.5.5"/>
  <path class="st0" d="M682,436c-7.2-3.8-14.9-4.4-23-4.1-13.7.4-27.3.1-41,.1"/>
  <path class="st0" d="M667,419c-15,0-30-.2-45,.5-1.5,0-3.1.7-4.5-.5"/>
  <path class="st0" d="M667,443c-16.3.1-32.7-.3-49,.5"/>
  <path class="st0" d="M667,456c-14.7,0-29.3.3-44,1-1.7,0-3.3-.7-5-.5"/>
  <path class="st0" d="M667,470c-16.3.6-32.7.6-49,1"/>
  <path class="st0" d="M667,514c-16.3.1-32.7.8-49,.5"/>
  <path class="st0" d="M667,484c-1,.4-1.9.5-3,.5-15.3,0-30.7.8-46,.5"/>
  <path class="st0" d="M1461.5,649.5c-4-2.8-5.8-7.4-9.4-10.6-10.6-9.5-22.8-12.6-36.6-9.9"/>
  <path class="st0" d="M1070.5,739.5c0-4.3,0-8.7,0-13.5h56"/>
  <path class="st0" d="M131,697c14.5.7,29-1.4,43.5-1.3,8.3,0,16.7,0,25,.3,2.1,0,3.3.7,4.6,2.5,8.9,13.3,22.6,15.3,36.9,14.3,4-.3,9.7.9,12-4.7,0-.1,0-.3,0-.5"/>
  <path class="st0" d="M238.5,577.5c-5.8,6.9-12.1,13.2-22,12.9-6-.2-12.1-.8-16.5-5.9-1.2-1.3-2.2-2.8-4.4-3.8-.9,8.4-2.2,17,0,24.6,2,7.2,5.3,15.2,12.1,20,5.1,3.6,11.1,4.8,17.4,4.7,4.3,0,8.7-.2,13,.3,3,.4,5.1-2.2,7-4.4"/>
  <path class="st0" d="M819.5,773.5c-1.1-16.8-.4-33.7.1-51.1-.6-1-2.2-.3-3.6-.3-10.7,0-21.3,0-32,0-3.1,0-4.1,1-4.1,4.1.1,12.8,0,25.7,0,38.5,0,1.6.6,3,.5,4.5"/>
  <path class="st0" d="M1014,760.5c-11.9-14.4-36.7-14.9-47.5-9.5-2.4,1.2-5,2-5,5.5,0,7.5,0,7.6,8,7.5,12-.2,24-1,36-1"/>
  <path class="st0" d="M618,499.5c12.8,1.4,25.7-.2,38.5,0,3.5,0,7,.3,11-.5,0-5.1,0-10.3,0-15.5,0-25.2,0-50.3,0-75.5,0-.8.6-1.3.5-2"/>
  <path class="st0" d="M203,660c-9.9,11.6-24.8,12.9-37,7.6-3.8-1.6-5.5-5.3-9-7.1"/>
  <path class="st0" d="M776.5,223.5c15.2.2,30.3-.5,45.5.5"/>
  <path class="st0" d="M253.5,667.5c-2.4.9-4.5,2.5-5.9,4.5-3.3,4.6-8.3,4.8-13,6-10.8,2.8-19.9-1.3-29-6.1-2.8-1.5-5.5-1.4-8.5-.5-9.3,2.6-18.8,3.8-28.5,2.6-2.2-.3-5.1-.4-6.3-1.3-4.8-3.4-7.9-.5-11.7,1.6-10.8,6.1-22.5,7.1-34.4,4.5-5-1.1-7.3-6.3-11-9.4-.5-.4-.7-1.1-1.5-1"/>
  <path class="st0" d="M293.5,789c-8.9.3-18,3.5-26.6-2.4-3.3-2.2-7.7-2.3-11.9-1.7-2.1.3-4.5.8-6.5-.9"/>
  <path class="st0" d="M731.5,677.5v54"/>
  <path class="st0" d="M161.5,616c-8,14.4-24.3,16.2-38,14.4-1.8-.2-3.3-.2-5,.1"/>
  <path class="st0" d="M543,435.5c-1.1,3.8-.3,7.7-.5,11.5-.7,15.2-.8,30.3.5,45.5"/>
  <path class="st0" d="M1031,601c-9.6-2.3-19.3,0-29-.5-5.5-.3-11,0-16.5-.5-7.4-.7-14.5.5-21.5,3"/>
  <path class="st0" d="M187.5,747.5c0-5.3.1-10.7,0-16-.1-3.5-3.2-6.9-5.9-6.4-3.8.6-4.7,3.4-4.6,6.9.2,4.5,0,9,0,13.5"/>
  <path class="st0" d="M581,606.5c-5.5,3-9.5,7.9-13.9,12.1-9.3,8.9-19.4,17-28.5,26-4.7,4.7-7.4,11-10.8,16.8-3.5,5.9-5.7,12.7-10.9,17.6"/>
  <path class="st0" d="M972,588c17.2.9,34.3.3,51.5,0"/>
  <path class="st0" d="M200.5,655c5.1,8.8,11.3,15.9,22,18.1,5.6,1.2,11,1.1,16.5.3,2.2-.3,4.3-.6,6.5,0"/>
  <path class="st0" d="M1185,535.5c-6.9,1-13.8,1.8-20.5,3.6-6.6,1.8-7.9,5.4-4.5,11.9,7.7-2.2,15.5-3.7,23.5-4.4,1,0,1.9,0,2.5-1"/>
  <path class="st0" d="M617,528c0-40.5.5-81-.6-121.6,16.8-2.2,33.2-1.1,49.6-1.4,3.7,0,5.6,3.1,8.5,4.5,6.5,3.2,8.4,7.6,8.4,15.5,0,24.8-.1,49.7,0,74.5.2,29.2,0,58.3,0,87.5,0,1.9.6,3.9-1,5.5"/>
  <path class="st0" d="M1003,731c-12,2-24,.6-36,1-2.2,0-4.3,0-6.5,0"/>
  <path class="st0" d="M1250,764c.7-4.8-1.5-8.4-6-8.9-3-.3-6.2-.6-9,.9-2.7,1.5-4.5,1.3-6.6-1.4-2.9-3.8-11.4-3.2-14.9.4-1.8.1-2.2-1.8-3.5-2.5-3.1-1.6-6.9-2.1-8.8.6-3.2,4.5-7.2,7-12.2,8.4-5.8,1.6-7.4,5.5-6.5,11"/>
  <path class="st0" d="M114,710c1.7,1.9,4.1,2.3,6.5,2.5,12,1.3,23.6,1.5,33-8,2.7-2.7,5-4.7,3.8-9.6-1.3-5.3-.3-11.3-.3-16.9s.2-4,0-6c-.6-4.2-3.7-6.2-6.9-3.9-6.3,4.3-13.6,4.3-20.5,6-6.3,1.5-12.7.8-19,.5"/>
  <path class="st0" d="M55,737c2,3.6,5.9,2.4,8.5,2.3,10.2-.5,20.4.3,30.5-.8,6.2-.6,12.5-.3,18.5-2.4,1.9-.6,3.2-1.9,5-2.6,2,.4,2,1.9,2,3.5.3,13.2.6,26.3.5,39.5"/>
  <path class="st0" d="M392.5,773.5c-3.6-3.3-7.8-1.6-11.5-.9-9,1.7-17.3,5-22.5,13.4-.9,1.5-1.9,3.1-1.5,5"/>
  <path class="st0" d="M224,747c.3-5-.3-10-.9-15-.3-2.3-1.4-3.9-3.6-3.9-2.1,0-3.4,1.5-3.5,3.9-.2,5-1,10-1,15"/>
  <path class="st0" d="M936.5,785c-8.5.8-17,.5-25.5.5-8.5,0-17,.2-25.5-.5"/>
  <path class="st0" d="M1467,710c7.6,1.1,15.4.6,23,1.5,1.6.2,3.1.2,5,1.3,0,13,0,26.4,0,39.7,0,4.8.3,9.7-.5,14.5"/>
  <path class="st0" d="M541,644.5c12.9,11.5,25.4,23.3,39.1,33.9,2.1,1.7,1.9,2.8.9,4.6"/>
  <path class="st0" d="M1072,611.5c1.1,11.3.2,22.7.5,34,0,1.8-.4,3.7.5,5.5"/>
  <path class="st0" d="M924,732c-11.5,0-23,0-34.5,0-1.7,0-3.4-.3-5,.5"/>
  <path class="st0" d="M1467.5,696.5c9.2,1,18.3,2,28.1,3-.5,4,.5,8-.6,12"/>
  <path class="st0" d="M934.5,616c-12.8.7-25.7.5-38.5.5"/>
  <path class="st0" d="M934.5,626h-38.5"/>
  <path class="st0" d="M934.5,608h-38.5"/>
  <path class="st0" d="M1481.5,678.5c-3.7-2.1-6.8-.3-10,1.5-6,3.3-11.8,7.2-17.6,10.8-2,1.2-1.7,2.3-1.9,3.7-1.1,14-.4,28-.5,42,0,7,0,14,0,21"/>
  <path class="st0" d="M1259,643v-46c-4.3-1.3-8.7.7-13,0"/>
  <path class="st0" d="M666.5,527c-10.6.9-21.3,1.2-32,1.4-15,.3-30,.9-45,.6-.7,0-1.5-.3-2.5,1.3,0,2.1.2,5.2-1,8.1"/>
  <path class="st0" d="M63,740c.7,12.7-1,25.3-1,38"/>
  <path class="st0" d="M1087.5,543c.2-3-.5-6,.6-9.5,10.5,0,21.2,0,31.8,0,.5,3.5,1.8,6.4.6,9.5"/>
  <path class="st0" d="M500,469c11.4,8.7,22.2,18.2,33.5,27,3.5,2.7,3.2,3.5,0,7-8.5,9.4-16.9,18.7-25.5,28-2.6,2.8-5,5.7-8,8"/>
  <path class="st0" d="M517,682.5c14.6,15,27.6,31.4,42,46.5,7.5,7.9,14.4,16.3,22,24"/>
  <path class="st0" d="M818,759.5c-12.5-.5-25-.5-37.5-.5"/>
  <path class="st0" d="M184,651c0-4.2.3-8.4,0-12.5-.3-2.9-2.3-4.8-5.4-4.5-2.8.3-3.6,2.3-3.5,4.9,0,3.8.4,7.7-.5,11.5"/>
  <path class="st0" d="M120,734.5c5.5,3.6,11.7,4.7,18,5,8.7.4,17.4,2.1,26-.9,1-.3,1.8-.5,2-1.6-11.4-2.8-21.8-7.1-28.1-17.9"/>
  <path class="st0" d="M818,739.5c-7.1,1.1-14.3.3-21.5.5-5.2.1-10.3,0-15.5,0"/>
  <path class="st0" d="M818,730c-12.3,0-24.7,0-37,0"/>
  <path class="st0" d="M818,749c-9.5.5-19,.8-28.5,0-2.8-.2-5.7-.2-8.5.5"/>
  <path class="st0" d="M184,605c0-3.5,0-7,0-10.5,0-2.8-.5-5.4-4-5.4-3.4,0-4.9,2.3-5,5.4,0,3.5,0,7,0,10.5"/>
  <path class="st0" d="M182.5,543.5c-2,6.3,2.3,11,4.7,15.9,2,4.2,4.9,8.2,9.3,10.7,1.5.9,2.4,2.6,3.1,4.4,5.4,12.6,18.1,13,26.4,10.4,1.9-.6,3.7-.8,5.5-.9"/>
  <path class="st0" d="M184.5,695.5c0-3.7-.1-7.3,0-11,.1-3-.9-5.1-4-5.5-2.6-.3-5.4,2.5-5.5,5.5-.1,3.5,0,7,0,10.5"/>
  <path class="st0" d="M1477,760v6l-12.5,5c-2.8-2.1-7.6-.5-9.2-5.4-.7-2-3.8-.8-5.8-1.1"/>
  <path class="st0" d="M1283,668c5.5,3.4,11.8,4.9,17.6,7.2,12.1,4.8,23.9,9.6,34.4,17.3.3.2,1,0,1.5,0"/>
  <path class="st0" d="M535,434c-11.9,10.7-22.5,22.9-35,33"/>
  <path class="st0" d="M543,501.5c6,5.4,9.1,12.8,13.9,19.1,3.7,4.8,5.5,11,10.6,15,.5.4-.4,1.8.5,2.4"/>
  <path class="st0" d="M198,573c-2.7,1-4.8,2.8-7,4.5-8.9,6.6-16.4,6.1-24.5-1.5-.8-.7-1.1-2-2.5-2"/>
  <path class="st0" d="M734,674.5c-8.3-.7-16.7-.6-25-.4-4.2,0-8.4-.6-12.5.4"/>
  <path class="st0" d="M199.5,617c-5.4,3.5-10.3,8.3-17.5,7-6.8-1.2-13.6-2.4-18.5-8-.7-.8-1.7-1.3-1.1-3,3.3-9.3,2.8-18.9,2.1-28.5,0-.8,0-1.7,0-2.5"/>
  <path class="st0" d="M1201,752.5c-4.4-2.2-9-.9-13.5-.9-13.2.2-26.3,1.6-39.5,1.4"/>
  <path class="st0" d="M580,684.5c-10,11-19.8,22.3-29.5,33.5"/>
  <path class="st0" d="M927,583.5v-54.5c-4.3,0-8.2,0-12,0"/>
  <path class="st0" d="M549,720c-9.7,10.2-18.2,21.5-27.9,31.6-.2.2-.8.8-.6,1.4"/>
  <path class="st0" d="M1251.5,763c.2.2.4.5.5.5,6.8-2,9.9,2,11.8,7.7,5.8-2.8,13.2.5,17.7-5.7"/>
  <path class="st0" d="M164.5,618.5c-2.3,6.2-.6,8.6,6,10.6,6.1,1.9,12.1.3,18-.3,2.7-.3,5.3-.5,8-.8"/>
  <path class="st0" d="M544.5,435c7,11.2,13.9,22.4,22.5,32.5"/>
  <path class="st0" d="M1205,401c-.9,11-1.6,22-.5,33"/>
  <path class="st0" d="M1181.5,769.5c-11,0-22,.2-33-.5"/>
  <path class="st0" d="M1181.5,761.5c-7.5,1.1-15,.3-22.5.5-3.5.1-7,0-10.5,0"/>
  <path class="st0" d="M197.5,608.5c3-2.1,6-.4,9,0,1.3.2,2.6.5,4,.5,4.8.1,8.9.7,11.2,6.4,2.4,5.9,8.1,9.5,14.3,10.4,4,.6,8.5-.1,12.5-1.8"/>
  <path class="st0" d="M123.5,729c2.7,2.9,6.1,4.2,10,5.1,7.3,1.6,14.6,2.9,22,.9"/>
  <path class="st0" d="M1179.5,741.5c-8,1.2-16,1.6-24,2.4-2.5.2-4.9,1.4-7.5,1.1"/>
  <path class="st0" d="M1336,772.5c2.3-5.6,6.1-8.7,12.5-7.5,2,.4,3.8-.7,4.9-2,4.7-5.2,13.4-6.2,18.5-1.9,1.1.9,2,2.7,3.5,2.4,7.5-1.5,11.5,3.7,16,8.1,4.6-1.6,9-5.5,13.8-.9,2-1.1,3.2-2.8,4.7-4.1,1.1-1,2.5-1.7,4-2,2.6-.4,5,.9,7.5,1,2.7,0,4.6-2.1,7.5-2.2,3.9-.2,6.3,2.3,9.5,3.2"/>
  <path class="st0" d="M1446,659.5c2.9,4.2,2.7,9.3,4.1,14,1.7,5.6,0,11.5,1.9,17"/>
  <path class="st0" d="M818,768.5c-12,1-24,0-36,.9-.9,0-1.8-.5-2.5.6"/>
  <path class="st0" d="M1360,726v31.5"/>
  <path class="st0" d="M1387,726v31.5"/>
  <path class="st0" d="M1179.5,721.5c-10.5,1.2-20.7,3.5-31,5.5"/>
  <path class="st0" d="M651.5,773.5c-4.8-2.1-10-2.2-15-3.3-3.1-.7-6.3-1.6-9.4-2.3-2.6-.6-4.4-.5-5.5,2.1"/>
  <path class="st0" d="M203,714.5c.9,11,.5,22,.5,33"/>
  <path class="st0" d="M1429.5,727c.3,10.2-.6,20.3.5,30.5"/>
  <path class="st0" d="M266,715c12.5,0,25,.9,37.5.4,5.5-.2,11-.3,16.5-.5,3,0,3.8.5,3.7,4-.4,13-.2,26-.2,39"/>
  <path class="st0" d="M157,741c-.4,11,1,22,1,33,0,1.7.3,3.4-.5,5"/>
  <path class="st0" d="M162.5,571.5c.3.5,1.1.7,1,1.5-.5,7.8,1.3,10,9,12.1,6.4,1.7,12.5.3,18.5-1.6,1.2-.4,2.2-1.1,3.5-1"/>
  <path class="st0" d="M565.5,540c-7.6,9.6-14.5,19.7-22.5,29"/>
  <path class="st0" d="M684,607.5c2.7-.2,5.3.2,8-.4,2.1-.5,4.8.2,5.9,2,2.9,4.7,6.9,8.6,10.8,12.2,3.8,3.5,3.3,7.2,3.3,11.2,0,9.2,0,18.3,0,27.5"/>
  <path class="st0" d="M1335.5,776.5c.2-.8,1.1-2,.5-2.4-3.8-2.5-7.6-5.4-12.4-5-2.2.2-2.8.4-4.2-2-3.6-6-10.7-7.2-16.8-8.9-3-.8-6.7,1.1-8.6,4.9-4.1-1.9-8.6-.6-12.8-.4-6.8.3-13.7-.4-20.5.3"/>
  <path class="st0" d="M1045.5,612c-.6,9.7-.5,19.3-.5,29"/>
  <path class="st0" d="M572,789c-7.7.6-15.3,1.3-23,.9-5.7-.3-10.7,2.9-16.5,2.3-7.1-.8-14.3-.3-21.5-.1-2.2,0-4-.3-5-2.5"/>
  <path class="st0" d="M164,607c-6.2.3-12.4,1.8-18.5,2.3-4.6.4-6.4,2.4-8.7,6.1-4,6.5-10,10.9-18.3,10.6-1.2,0-2.1.3-3,1"/>
  <path class="st0" d="M111,710c-1.9,3,1.7,3.5,2.6,3.8,13.3,4.7,26.6,7.4,39.4-1.3"/>
  <path class="st0" d="M135,775.5c0-7.2.1-14.3,0-21.5,0-2.7.4-4.8,3.3-6.3,4.5,4.2,1.2,9.6,2.1,14.3.9,4.7.3,9.6-.3,14.5"/>
  <path class="st0" d="M1446.5,729c.6,9.5.5,19,.5,28.5"/>
  <path class="st0" d="M173,543.2c.7,7.1-3.5,12.6-6.7,18.2-2.5,4.3-4.3,9-7.3,13.1-4.5,6.2-9.6,10.5-18,10.7-5,.1-10-.8-15,0-3.8.7-5.7-2.6-7-5.8"/>
  <path class="st0" d="M1466,663.5c4.8,3.7,10,6.9,15,10.4,4.6,3.2,5.8,7.4,5,12.6"/>
  <path class="st0" d="M887,563h-33.1c.3,3-.3,5.5.6,8"/>
  <path class="st0" d="M163,625c-11.7,9.3-24.5,13.6-39.6,9.2-3.7-1.1-5.3-3.9-7.7-5.9-1.3-1.1-2.7-2.3-4.2-3.2"/>
  <path class="st0" d="M421,602c0-2.8,0-5.7,0-9h-40q-8,0-8,8"/>
  <path class="st0" d="M1077.5,610c-5.6,1.1-11.4,1-17,1.9-5.1.8-10.3-.7-15.5-.3-2,.1-4.1-.5-6,.4-.2,9.2.4,18.4-.5,27.6"/>
  <path class="st0" d="M1195.5,428.5c-.6-4.8,1.5-10.1-2-15.1-3.5,4-1.4,8.3-2,12.1"/>
  <path class="st0" d="M233,720c0,9,1.1,18,1,27"/>
  <path class="st0" d="M1069.5,692h-9.6c-1.9,8.1-.6,16.3-.4,24.5"/>
  <path class="st0" d="M845,740.5c10.8-2.2,21.7-.3,33-1.2,0-4.1,0-8.5,0-12.6,5.6-2.9,11.3,0,16.5-1.7"/>
  <path class="st0" d="M1263.5,666c-1.1,9-.2,18-.5,27"/>
  <path class="st0" d="M1281.5,667.5c-.3,9,.6,18-.5,27"/>
  <path class="st0" d="M1494,728.5c-9-.6-18-1.6-27-2.5"/>
  <path class="st0" d="M223,636c0,2.3.2,4.7,0,7-1.1,13.4,6.8,20.5,17.5,26.1,2.6,1.4,5.5-.3,7.6,1.9"/>
  <path class="st0" d="M1066.5,719.5c18.8,0,37.7,0,56.5,0,4.1,0,8,.8,12,1.5"/>
  <path class="st0" d="M336,789c-3.3,1.1-6.8.9-10,.3-5.6-1-11.1.6-16.5-.3"/>
  <path class="st0" d="M135,637c0,3.2-.3,6.4,0,9.5.6,6-1.9,10.8-5.6,15-4.5,5.1-9.7,9.2-16.9,9.5-.9,0-1.5.4-2,1"/>
  <path class="st0" d="M1467.5,740c8.8.7,17.7,1,26.5,1.5"/>
  <path class="st0" d="M178,504.5c-.5,8.8-3.1,17.2-3.5,26"/>
  <path class="st0" d="M560,757.5c1.5,2.1,4,1.6,6,1.9,17.9,2.9,35.7,6.9,53.4,10.7,8.1,1.8,16.4,3.5,24.1,7.2,4,2,6-1.7,8.5-3.9"/>
  <path class="st0" d="M1450.5,728c-7.7-.5-15.4-1.4-23-2.4-12.9-1.7-26-1.2-39-.7-9.8.4-19.7.1-29.5,0-7.2,0-14.3.4-21.5,1"/>
  <path class="st0" d="M567,407c-7.3,6.5-14.6,13.1-21.5,20-2.1,2.1-3.4,4.4-2,7.5"/>
  <path class="st0" d="M1322,668c-.6-6.8-1.5-13.6-.9-20.9-8.9-.8-17.1-2.9-25.6-3.1-2.4,0-4.8.2-7-1"/>
  <path class="st0" d="M147.5,694.5c.2-2.2-.7-4.3-.5-6.5.1-2-.7-3.8-3-3.9-3.2-.1-1.9,2.5-1.9,3.9-.2,3-.2,6,.4,9"/>
  <path class="st0" d="M1039.5,717c8-.8,16-.6,24.3.2.7,7.6-.4,15,.7,22.3"/>
  <path class="st0" d="M1179.5,416.5c.5.3.6.7.5,1-1.2,9-1.3,9.1,6.5,12.4,1.6.7,3.4,1.5,4.9,2.3,8.7,4.6,14.7,4.3,22.1-1.7,3.1-2.6,7-1.9,10.5-3"/>
  <path class="st0" d="M202,671.5c-.2,8,1.1,16-.5,24"/>
  <path class="st0" d="M238,631c-5.8,5-12.8,4.6-19.5,3.8-6.4-.8-12.9-2.4-17.6-7.8-.8-.9-1-.8-3.5.3,0,8.5,0,16.9,0,25.2"/>
  <path class="st0" d="M252.5,773c-5.3,2.1-11.1,2.3-16.7,4.4-.8,2-.1,4.6-.3,7.1"/>
  <path class="st0" d="M711,633.5c-11-.9-22-.3-33-.5"/>
  <path class="st0" d="M567,470c-7.9,7.3-14.6,15.8-22.5,23"/>
  <path class="st0" d="M161,628.5c1,8,1.4,16,0,24"/>
  <path class="st0" d="M548,354h-20.6c-1,6.6-1.5,13.3-.4,20"/>
  <path class="st0" d="M1316,622.5c-1,5.8-.4,11.7-.5,17.5,0,2,.4,4.1-.5,6"/>
  <path class="st0" d="M1300.5,676c-.3,7.7.6,15.4-.5,23"/>
  <path class="st0" d="M887,550c-3.8-.3-7.3,1.4-11.2,1.5-.9,3.4.4,7-.8,10.5"/>
  <path class="st0" d="M1371.5,759c6.8-1,13.7-.5,20.5-.5,23.5,0,47,.2,70.5-.6,5.7-.2,11.2,1.8,17,1.2,2.1-.2,3.7,1.2,3.5,3.9,0,1.1-.6,2.5.4,3.5"/>
  <path class="st0" d="M162.5,582c-9.6,7.1-20.6,8-32,6.9-1.7-.2-4.1-.7-5-2.9"/>
  <path class="st0" d="M885.5,764.5c13.2-.2,26.3.5,39.5-.5"/>
  <path class="st0" d="M324,583c-1.1,4.6-.9,9.4-.4,14,1.1,10-.7,20-.2,30,.4,8,.2,16,.3,24,0,8-.2,16-.3,24,0,8.5,0,17,0,25.5,0,1,.6,2.1-.5,3"/>
  <path class="st0" d="M111,738c0,6.8-.9,13.7-.5,20.5"/>
  <path class="st0" d="M687,623h20.5"/>
  <path class="st0" d="M682,574.5c-7.6-6.3-16.7-1.7-25-3.4-2.9-.6-6,0-9,0"/>
  <path class="st0" d="M1244.5,645c-2.8,1.4-6.1,1.2-9,2.1-4.1,1.2-8.2,3.2-12.2,4.5-5.6,1.8-11.4,3.9-17.4,4.3-.6,0-.9.8-1.5.5"/>
  <path class="st0" d="M963,765v19.5"/>
  <path class="st0" d="M1056.5,739.5v-14.2c-8.3-1.2-16.7.2-25,0-7.3-.2-14.7.3-22,.3-2.1,0-4.3-.2-6,1.5"/>
  <path class="st0" d="M667,541c-6.5.7-13,1.1-19.5,1"/>
  <path class="st0" d="M682,561c-1.3.6-2.1-.5-3-1-7.3-4.3-15.1-3.7-23-3-2.8.2-5.7,0-8.5,0"/>
  <path class="st0" d="M204.5,697c8.2-1,16.3.5,24.5,1.1.7,0,2,.3,2.5,1.4,3.2,6.3,9.9,7.6,15.5,10.5"/>
  <path class="st0" d="M141,590c.4,6.3,1,12.6,1,19"/>
  <path class="st0" d="M155.5,713.5c-1.2,4.5-.2,9-.5,13.5-.1,1.8.2,3.7-.5,5.5"/>
  <path class="st0" d="M724,641c-1.4,6.3.8,12.7,0,19"/>
  <path class="st0" d="M677,573.5c-.4,6.4-1.8,12.8,1,19"/>
  <path class="st0" d="M1477.5,767c1.8.9,3.7.7,5.5,0,6-2.6,11.7-.2,16.9,1.7,4.2,1.6,8.1,4.6,11.1,8.2.4.5,1.3.7,1.4,1.6"/>
  <path class="st0" d="M648,566.5c6.2.3,12.4-.6,18.5.5"/>
  <path class="st0" d="M1309.5,759c11.5-1,23-.4,34.5-.5,3.5,0,7-.7,10.5.5"/>
  <path class="st0" d="M131,681c.2,2.9-.7,5.6-.5,8.5.1,3,.8,6.5-1.1,8.9-3.3,4.1-7.2,7.8-12.4,9.6-5.5,1.8-5.6,1.8-10.5-1.5"/>
  <path class="st0" d="M75,740c0,5.8.2,11.7-.5,17.5"/>
  <path class="st0" d="M215.5,591.5c.8,5.8.4,11.7.5,17.5"/>
  <path class="st0" d="M228.5,680c0,5.8,0,11.7,0,17.5"/>
  <path class="st0" d="M1466,684.5c1.2,8.6.5,17.3.4,26,0,9.8-.5,19.6.3,29.5.5,5.7,0,11.6-.2,17.5"/>
  <path class="st0" d="M961,755.5c-1.8-.2-3,.8-4,2-2.7,3.2-6.1,3.7-10,3.6-6.9-.3-14.1,1-21-5.3v28.8"/>
  <path class="st0" d="M548.5,357.5c1.6,5.5,1.3,11,0,16.5"/>
  <path class="st0" d="M178,514.5c1.3,2.9,1,6,1,9,0,3,.1,6,2,8.5"/>
  <path class="st0" d="M153,652c-.4-4,1.8-9-4.2-11.3-4,3.7-2.2,8.1-1.8,12.3"/>
  <path class="st0" d="M778,758c-6.1-7.9-14.3-10.5-24-9.5"/>
  <path class="st0" d="M944,549c-5.3.7-10.9.3-16,2.5"/>
  <path class="st0" d="M753,741c-5.9-4.7-11.7-8.7-20-8.8-4.7,0-8.5,1.2-12.5,2.9-2.5,1.1-4.7,3-7.5,3.4-8.2,1.4-11.9,5.7-12,14,0,.7.3,1.5-.9,2.2-2.4.1-5.1-1.5-8.2.1-2.6,1.4-4.8,2.9-5.9,5.7"/>
  <path class="st0" d="M676.5,761c-6.6,2.2-10.7,6.9-13.5,13-3.6-1.3-7.3-.2-11-.5"/>
  <path class="st0" d="M555.5,778c-4.9,2.3-9.1,5.3-12.6,9.5-.8,1-.9,1.6-.4,2.5"/>
  <path class="st0" d="M953,770h-15.5"/>
  <path class="st0" d="M667.5,499.5c4.5,2.6,9.7,3.7,14.5,5.5"/>
  <path class="st0" d="M156,607c-.7-2.3-.5-4.7-.5-7,.1-3.9,0-4.3-4.3-6.1-1.9,4.7-1.4,9.4-.7,14.1"/>
  <path class="st0" d="M207,608c.7-4.8,1.5-9.6-1.1-14-4.1.4-5.2,2.5-4.9,6,.2,2.3,0,4.7,0,7"/>
  <path class="st0" d="M668,541.5c4.5,2,8.8,4.7,14,5"/>
  <path class="st0" d="M668,484.5c4.5,2.4,9,4.4,14,5.5"/>
  <path class="st0" d="M668,514.5c4.9.9,9.1,3.7,14,4.5"/>
  <path class="st0" d="M668,470.5c4.5,2.2,9.1,4.3,14,5.5"/>
  <path class="st0" d="M1303.5,699.5c-.4,7-.7,14-.4,21,0,1.7.7,3.3-.1,5"/>
  <path class="st0" d="M668,456.5c4.9,1.5,9.1,4.6,14,6"/>
  <path class="st0" d="M668,443.5c4.8,1.5,8.9,4.9,14,5.5"/>
  <path class="st0" d="M668,419.5c5,.9,9.1,4.2,14,5.5"/>
  <path class="st0" d="M885,756.5c0,9.3,0,18.7,0,28-3.1,1.1-5.8,1.6-8.5.5"/>
  <path class="st0" d="M1209,656.5c2.1,2.6,5.5,2.8,8,4.5,1.9,1.3,4.5,1.5,5.5,4"/>
  <path class="st0" d="M499,583.5c1,8.7.2,17.3,0,26"/>
  <path class="st0" d="M217.5,696.5c1.2-7.5.9-9-3.2-13.8-4.3,3.9-1.4,8.9-2.3,13.3"/>
  <path class="st0" d="M668,501.5c-1.1,12.8-.3,25.7-.5,38.5-.1,8.7.2,17.3-.2,26,0,1.7.6,3,.7,4.5"/>
  <path class="st0" d="M668.5,528c4.4,1.9,8.9,3.4,13.5,4.5"/>
  <path class="st0" d="M1145,757c-1.7,2.7.1,5.3,0,8-.1,2.2.5,4.4-.5,6.5"/>
  <path class="st0" d="M223,654c-4,.3-8,.4-12,.3-11.7,0-22.9-3.5-34.5-3.3-4.8,0-9.6,1.5-14.5,1"/>
  <path class="st0" d="M1006.5,755.5c-.8,9.5-.4,19-.5,28.5"/>
  <path class="st0" d="M1025.5,514.5c-.8,4.1,0,8.4-1,12.5"/>
  <path class="st0" d="M1157,411c-1,3.9-.2,8.1-1.5,12"/>
  <path class="st0" d="M160.5,652.5c-6.7-.1-13.4.7-20,2.1-2.1.4-4,.4-6,0"/>
  <path class="st0" d="M1039,724.5v-6.9q-7.2-1-7,6.9"/>
  <path class="st0" d="M499,635.5c1.3,5.5.3,11,.4,16.5.3,13,.1,26,0,39,0,1.9.6,3.9-1,5.5"/>
  <path class="st0" d="M681,595.5c3.4,3.9,1.7,8.6,2,13,.2,3.7-.7,7.5,1,11"/>
  <path class="st0" d="M1179,426c-4,2.1-7.8.7-11.5-1"/>
  <path class="st0" d="M695,608c-1.9,4.4-6.6,6.5-9,10.5"/>
  <path class="st0" d="M211.5,653.5c-.3-4.5,1.6-9.7-4.3-12.7-3.8,3.6-1.6,8.2-2.2,12.2"/>
  <path class="st0" d="M1189,686.5c1.2,3.6.2,7.3.5,11"/>
  <path class="st0" d="M896,583.5c5.8.2,11.6,1.9,17.5.5"/>
  <path class="st0" d="M952.5,761.5c3.3,4.3.8,9,.8,13.5,0,3-.2,6-.3,9"/>
  <path class="st0" d="M535.5,568.5c1.5,3.4.5,7.1,1.5,10.5"/>
  <path class="st0" d="M165,606.5c8.8-.6,17.7-1.6,26.5.4.9.2,2.1.6,3-.4"/>
  <path class="st0" d="M1214,419.5c.1,3.2-.3,6.3.2,9.5"/>
  <path class="st0" d="M927,777.5h9"/>
  <path class="st0" d="M1121,545.5c.3,3-1.3,6,0,9"/>
  <path class="st0" d="M706.5,608c-.3,2.8.6,5.7-.5,8.5"/>
  <path class="st0" d="M1182.5,753c.3,3.5-.6,7,.5,10.5"/>
  <path class="st0" d="M499.5,751.5c5.3.8,10.6,1.9,16,1.5"/>
  <path class="st0" d="M684.5,620.5c-1.5,2.3-4.1,3-6.5,4"/>
  <path class="st0" d="M1087,555c-2.4,1.2-5.4,1.1-7.5,3"/>
  <path class="st0" d="M1014.5,776h-7.5"/>
  <path class="st0" d="M1043,709.5c5,0,10,0,15,0"/>
  <path class="st0" d="M925,727c-.5,6.2.7,12.4-.5,18.5"/>
  <path class="st0" d="M1147,739.5c1.4,5.3-.6,10.7,0,16"/>
  <path class="st0" d="M786.5,770c1.5,2.3,4.5,2.8,6,5"/>
  <path class="st0" d="M1147.5,760.5c0,4.7,0,9.3,0,14"/>
  <path class="st0" d="M1031,587.5c-2.1.7-4.3.5-6.5.5"/>
  <path class="st0" d="M1328.5,676.5c1.4,2.6,4.1,4,5.5,6.5"/>
  <path class="st0" d="M978.5,526.5c-2.4.2-4.2,1.9-6.5,2.5"/>
  <path class="st0" d="M1025.5,528c1.9.9,3.5,2.2,5.5,3"/>
  <path class="st0" d="M181,536c-4.6-1.1-6.7,1-7,5.5"/>
  <path class="st0" d="M1079,720.5c-1.1,1.6-.2,3.3-.5,5"/>
  <path class="st0" d="M1445.5,714c1.4,1.4,3.4,1.2,5,2"/>
  <path class="st0" d="M1033.5,639.5c2.4,1.2,5.3-.4,7.5,1.5"/>
  <path class="st0" d="M678,609c1.4.2,2.5,1.3,4,1"/>
  <path class="st0" d="M845,642.5h4"/>
  <path class="st0" d="M126.5,722.5c-3.6,1.4-2.2,6.1-5,8"/>
</svg>