<?xml version="1.0" encoding="UTF-8"?>
<svg id="Layer_1" data-name="Layer 1" xmlns="http://www.w3.org/2000/svg" viewBox="0 0 202.73 87.23">
  <defs>
    <style>
      .cls-1 {
        fill: #231916;
      }

      .cls-2 {
        fill: #010100;
        fill-rule: evenodd;
      }
    </style>
  </defs>
  <path class="cls-2" d="M0,1.55l20,23.83,8.06-9.6L16.11,1.55H0ZM64.17,1.55l-27.8,33.13v18.66h-12.34v-23.16L48.05,1.55h16.11ZM68.34,1.55h12.34v51.79h-12.34V1.55ZM202.45,33.93c-2.91,12.03-13.75,20.96-26.67,20.96s-23.76-8.93-26.67-20.96h13.03c2.43,5.09,7.62,8.61,13.64,8.61s11.21-3.52,13.64-8.61h13.03ZM114.71,0c8.43,0,15.98,3.81,21.01,9.79l-9.48,7.95c-2.76-3.28-6.91-5.37-11.53-5.37-8.32,0-15.07,6.75-15.07,15.07s6.75,15.07,15.07,15.07c6,0,11.18-3.51,13.61-8.59h-13.63v-11.67h26.98c.32,1.68.49,3.41.49,5.19,0,15.16-12.29,27.44-27.44,27.44s-27.44-12.29-27.44-27.44S99.55,0,114.71,0ZM175.78,0c13.38,0,24.52,9.58,26.95,22.25h-12.77c-2.12-5.78-7.67-9.91-14.18-9.91s-12.07,4.13-14.18,9.91h-12.77c2.43-12.68,13.57-22.25,26.95-22.25Z"/>
  <path class="cls-1" d="M178.44,75.1c-.96-1.7-2.73-2.51-4.57-2.51-2.77,0-4.79,1.74-4.79,4.05,0,2.53,1.9,3.31,3.87,4.21,1.94.86,3.11,1.18,3.11,2.41,0,.86-.88,1.56-2.29,1.56s-2.43-.7-3.09-1.9l-1.99,1.52c1.02,1.84,2.97,2.79,5.05,2.79,3.17,0,4.97-1.9,4.97-4.05,0-2.47-1.72-3.35-4.05-4.35-1.64-.74-2.93-1.14-2.93-2.27,0-.96.9-1.58,2.11-1.58,1.02,0,1.96.48,2.65,1.58l1.96-1.46ZM157.32,75.16h4.05v11.83h2.63v-11.83h4.07v-2.33h-10.75v2.33ZM143.43,86.99h2.63v-9.64l7.04,9.64h2.25v-14.17h-2.63v9.58l-7.04-9.58h-2.25v14.17ZM131.62,72.83v14.17h9.32v-2.31h-6.68v-3.65h5.33v-2.31h-5.33v-3.57h6.46v-2.31h-9.1ZM113.61,86.99h2.63v-9.36l3.97,6.16h1.32l3.95-6.16v9.36h2.63v-14.17h-2.35l-4.89,7.72-4.89-7.72h-2.37v14.17ZM104.09,79.85v-4.71h2.21c1.32,0,2.37.96,2.37,2.29s-1.06,2.41-2.37,2.41h-2.21ZM101.48,86.99h2.61v-4.87h2.61c2.57,0,4.69-2.04,4.69-4.69s-2.08-4.61-4.71-4.61h-5.21v14.17ZM91.6,75.1c2.61,0,4.63,2.08,4.63,4.81s-2.01,4.81-4.63,4.81-4.63-2.08-4.63-4.81,2.01-4.81,4.63-4.81ZM91.6,72.59c-4.19,0-7.34,3.17-7.34,7.32s3.15,7.32,7.34,7.32,7.34-3.17,7.34-7.32-3.15-7.32-7.34-7.32ZM75.58,86.99h8.56v-2.33h-5.93v-11.83h-2.63v14.17ZM63.77,72.83v14.17h9.32v-2.31h-6.68v-3.65h5.33v-2.31h-5.33v-3.57h6.46v-2.31h-9.1ZM48.87,72.83l5.27,14.17h2.65l5.27-14.17h-2.77l-3.81,10.75-3.83-10.75h-2.77ZM38.85,72.83v14.17h9.32v-2.31h-6.68v-3.65h5.33v-2.31h-5.33v-3.57h6.46v-2.31h-9.1ZM26.66,84.68v-9.54h2.25c2.61,0,4.69,2.04,4.69,4.75s-2.09,4.79-4.71,4.79h-2.23ZM24.03,86.99h5.09c4.19,0,7.2-3.11,7.2-7.1s-3.01-7.06-7.2-7.06h-5.09v14.17Z"/>
</svg>